<svg version="1.1" xmlns="http://www.w3.org/2000/svg" viewBox="0 0 851.1111111111113 758.8888888888889" width="2553.333333333334" height="2276.666666666667">
  <!-- svg-source:excalidraw -->
  
  <defs>
    <style class="style-fonts">
      @font-face {
        font-family: "Virgil";
        src: url("https://excalidraw.com/Virgil.woff2");
      }
      @font-face {
        font-family: "Cascadia";
        src: url("https://excalidraw.com/Cascadia.woff2");
      }
    </style>
    
  </defs>
  <rect x="0" y="0" width="851.1111111111113" height="758.8888888888889" fill="#fdf8f6"></rect><g stroke-linecap="round" transform="translate(350.9444444444444 169.55555555555554) rotate(0 41.25 46.25)"><path d="M20.63 0 M20.63 0 C33.38 1.04, 45.89 1.25, 61.88 0 M20.63 0 C31.12 -0.4, 41.72 0.27, 61.88 0 M61.88 0 C76.53 -0.61, 82.83 6.76, 82.5 20.63 M61.88 0 C76.9 0.78, 80.25 8.45, 82.5 20.63 M82.5 20.63 C81.41 39.38, 82.38 60.41, 82.5 71.87 M82.5 20.63 C82.27 32.77, 83.79 46.23, 82.5 71.87 M82.5 71.87 C82.84 83.74, 75.6 90.68, 61.88 92.5 M82.5 71.87 C84.53 87.78, 76.2 92.88, 61.88 92.5 M61.88 92.5 C48.8 94.22, 39.18 91.7, 20.63 92.5 M61.88 92.5 C47.28 92.15, 30.97 92.9, 20.63 92.5 M20.63 92.5 C6.47 92.3, -0.34 86.89, 0 71.87 M20.63 92.5 C8.44 94.25, -1.8 85.9, 0 71.87 M0 71.87 C-0.72 58.29, -1.67 49.88, 0 20.63 M0 71.87 C-0.19 58.6, -0.21 47.33, 0 20.63 M0 20.63 C-1.71 7.72, 8.11 -1.2, 20.63 0 M0 20.63 C1.08 8.67, 8.16 -1.92, 20.63 0" stroke="#000000" stroke-width="1" fill="none"></path></g><g transform="translate(350.4444444444444 198.05555555555554) rotate(0 64 -25.5)" stroke="none"><path fill="#000000" d="M 0.65,1.53 Q 0.65,1.53 -0.18,2.34 -1.03,3.15 -2.46,3.51 -3.90,3.87 -5.20,3.96 -6.50,4.04 -7.60,4.08 -8.71,4.13 -10.38,3.93 -12.05,3.74 -13.30,3.45 -14.55,3.16 -15.69,2.90 -16.83,2.64 -17.96,2.15 -19.09,1.65 -20.00,0.99 -20.91,0.33 -21.68,-0.46 -22.45,-1.27 -23.12,-2.15 -23.79,-3.02 -24.49,-3.98 -25.19,-4.93 -25.65,-6.37 -26.11,-7.80 -26.37,-9.08 -26.64,-10.36 -26.75,-11.44 -26.86,-12.52 -26.74,-13.59 -26.62,-14.66 -26.55,-16.19 -26.49,-17.72 -26.32,-18.84 -26.14,-19.97 -25.47,-21.82 -24.80,-23.68 -24.01,-25.18 -23.22,-26.68 -22.06,-28.39 -20.90,-30.10 -20.05,-30.93 -19.20,-31.77 -17.76,-33.24 -16.32,-34.71 -14.49,-36.15 -12.66,-37.60 -10.75,-38.82 -8.83,-40.04 -7.83,-40.53 -6.83,-41.01 -5.17,-41.66 -3.51,-42.31 -1.42,-43.18 0.66,-44.05 1.95,-44.51 3.23,-44.98 4.85,-45.49 6.47,-45.99 7.90,-46.59 9.34,-47.19 10.64,-47.63 11.94,-48.07 13.15,-48.52 14.35,-48.97 16.56,-49.63 18.76,-50.29 19.82,-50.55 20.88,-50.82 22.08,-51.08 23.28,-51.35 24.33,-51.60 25.39,-51.85 26.75,-52.11 28.12,-52.38 29.67,-52.50 31.22,-52.63 32.78,-52.81 34.35,-52.99 36.02,-53.21 37.69,-53.43 39.26,-53.67 40.82,-53.91 42.81,-54.16 44.81,-54.40 46.48,-54.65 48.15,-54.90 50.19,-55.16 52.23,-55.43 54.61,-55.55 57.00,-55.68 59.15,-55.73 61.30,-55.78 63.74,-55.95 66.17,-56.11 68.49,-56.33 70.81,-56.55 73.68,-56.79 76.56,-57.03 79.42,-57.14 82.27,-57.25 84.56,-57.44 86.85,-57.62 89.41,-57.57 91.96,-57.51 93.85,-57.48 95.73,-57.46 98.04,-57.30 100.35,-57.15 102.49,-56.94 104.63,-56.74 107.03,-56.35 109.44,-55.97 111.64,-55.52 113.83,-55.06 115.58,-54.74 117.33,-54.41 119.04,-53.96 120.74,-53.52 122.11,-53.20 123.48,-52.88 125.11,-52.26 126.74,-51.64 128.19,-51.13 129.64,-50.61 130.91,-50.08 132.19,-49.54 133.41,-49.04 134.62,-48.54 135.88,-47.82 137.14,-47.10 138.23,-46.59 139.32,-46.08 140.45,-45.30 141.57,-44.52 142.79,-43.43 144.02,-42.34 145.10,-41.31 146.17,-40.29 147.13,-39.21 148.08,-38.12 149.05,-36.96 150.03,-35.79 150.75,-34.82 151.48,-33.86 152.14,-32.79 152.79,-31.72 153.59,-29.90 154.38,-28.08 154.51,-26.02 154.63,-23.97 154.21,-21.92 153.78,-19.86 153.17,-18.48 152.56,-17.10 152.01,-16.11 151.45,-15.11 150.75,-14.06 150.05,-13.00 149.26,-12.06 148.47,-11.11 147.18,-9.53 145.89,-7.95 145.14,-7.16 144.39,-6.37 143.41,-5.53 142.43,-4.68 141.44,-4.09 140.45,-3.49 138.53,-2.47 136.62,-1.45 135.41,-0.93 134.20,-0.42 132.52,0.23 130.84,0.89 129.43,1.44 128.01,2.00 126.16,2.56 124.31,3.12 122.72,3.63 121.13,4.13 119.66,4.52 118.19,4.90 116.61,5.34 115.03,5.78 113.46,6.00 111.90,6.22 110.31,6.45 108.71,6.68 107.38,6.78 106.04,6.89 104.74,6.95 103.43,7.00 102.30,7.03 101.17,7.05 99.50,7.07 97.82,7.08 96.00,6.88 94.18,6.68 92.39,6.49 90.59,6.30 88.86,6.21 87.13,6.13 84.50,4.89 81.87,3.65 81.70,3.52 81.53,3.39 81.41,3.21 81.30,3.03 81.24,2.83 81.19,2.62 81.20,2.41 81.22,2.20 81.30,2.00 81.38,1.81 81.52,1.65 81.66,1.49 81.84,1.38 82.02,1.27 82.23,1.23 82.44,1.18 82.65,1.21 82.86,1.23 83.05,1.32 83.24,1.42 83.40,1.56 83.55,1.71 83.65,1.90 83.74,2.09 83.78,2.30 83.81,2.51 83.77,2.72 83.74,2.93 83.63,3.11 83.53,3.30 83.38,3.45 83.22,3.59 83.03,3.68 82.83,3.76 82.62,3.78 82.41,3.81 82.20,3.76 82.00,3.71 81.82,3.60 81.63,3.49 81.50,3.32 81.36,3.16 81.29,2.96 81.21,2.76 81.20,2.55 81.19,2.34 81.25,2.13 81.31,1.93 81.43,1.76 81.55,1.58 81.72,1.45 81.89,1.33 82.09,1.26 82.30,1.20 82.51,1.20 82.72,1.20 82.92,1.27 83.12,1.34 83.12,1.34 83.12,1.34 84.82,1.00 86.53,0.66 87.72,0.80 88.92,0.94 90.15,1.04 91.38,1.15 92.95,1.32 94.53,1.49 96.17,1.69 97.82,1.90 99.46,1.89 101.09,1.89 102.18,1.88 103.26,1.87 104.46,1.84 105.66,1.82 106.84,1.74 108.01,1.65 109.62,1.43 111.23,1.21 112.46,1.06 113.70,0.91 115.32,0.47 116.94,0.02 118.28,-0.31 119.61,-0.65 121.24,-1.16 122.86,-1.68 124.52,-2.17 126.17,-2.66 127.59,-3.22 129.01,-3.79 130.62,-4.41 132.23,-5.04 133.35,-5.52 134.47,-6.00 136.20,-6.93 137.93,-7.87 139.33,-8.86 140.73,-9.86 142.04,-11.26 143.34,-12.67 144.60,-14.25 145.86,-15.83 146.92,-17.53 147.98,-19.23 148.63,-21.04 149.29,-22.85 149.56,-24.14 149.83,-25.43 149.49,-26.56 149.14,-27.68 148.30,-29.26 147.47,-30.84 146.81,-31.71 146.16,-32.59 145.24,-33.70 144.32,-34.82 143.52,-35.74 142.71,-36.67 141.69,-37.64 140.67,-38.62 138.92,-40.09 137.17,-41.57 135.89,-42.19 134.61,-42.80 133.67,-43.37 132.73,-43.94 131.48,-44.45 130.24,-44.97 129.10,-45.45 127.97,-45.94 126.45,-46.49 124.94,-47.03 123.65,-47.55 122.36,-48.07 120.91,-48.41 119.47,-48.74 117.95,-49.16 116.42,-49.57 114.62,-49.91 112.83,-50.25 110.74,-50.69 108.66,-51.13 106.40,-51.50 104.14,-51.87 102.08,-52.09 100.01,-52.30 97.83,-52.46 95.66,-52.62 93.75,-52.64 91.84,-52.67 89.53,-52.75 87.23,-52.82 84.83,-52.63 82.44,-52.44 79.70,-52.35 76.95,-52.27 74.09,-52.04 71.24,-51.81 68.86,-51.60 66.48,-51.39 63.94,-51.24 61.40,-51.08 59.31,-51.04 57.21,-51.00 55.01,-50.91 52.80,-50.83 50.81,-50.59 48.82,-50.36 47.09,-50.11 45.37,-49.86 43.44,-49.62 41.50,-49.38 39.90,-49.14 38.30,-48.90 36.59,-48.67 34.88,-48.44 33.22,-48.24 31.56,-48.05 30.27,-47.96 28.98,-47.87 27.71,-47.63 26.44,-47.39 25.35,-47.14 24.26,-46.88 23.13,-46.63 22.00,-46.38 20.95,-46.12 19.90,-45.85 17.94,-45.25 15.97,-44.65 14.70,-44.17 13.43,-43.69 12.28,-43.30 11.13,-42.90 9.50,-42.22 7.88,-41.54 6.36,-41.06 4.84,-40.58 3.47,-40.08 2.11,-39.58 0.94,-39.23 -0.23,-38.89 -1.83,-38.14 -3.44,-37.39 -4.87,-36.69 -6.31,-35.99 -7.34,-35.34 -8.38,-34.70 -9.94,-33.68 -11.50,-32.65 -12.99,-31.28 -14.49,-29.90 -15.72,-28.59 -16.95,-27.27 -17.98,-25.74 -19.01,-24.21 -19.66,-22.97 -20.31,-21.74 -20.80,-20.46 -21.30,-19.19 -21.45,-17.45 -21.59,-15.71 -21.75,-14.32 -21.90,-12.93 -21.64,-11.49 -21.39,-10.05 -21.13,-8.84 -20.88,-7.64 -20.08,-6.53 -19.28,-5.42 -18.40,-4.31 -17.52,-3.20 -16.49,-2.85 -15.45,-2.51 -14.19,-2.25 -12.93,-1.99 -11.62,-1.56 -10.31,-1.14 -9.00,-1.12 -7.70,-1.10 -6.58,-1.09 -5.46,-1.08 -4.23,-1.25 -2.99,-1.43 -1.82,-1.48 -0.65,-1.53 -0.46,-1.58 -0.27,-1.64 -0.07,-1.65 0.13,-1.66 0.32,-1.62 0.52,-1.58 0.70,-1.49 0.88,-1.41 1.04,-1.28 1.20,-1.15 1.32,-0.99 1.44,-0.83 1.52,-0.65 1.60,-0.46 1.63,-0.26 1.66,-0.07 1.65,0.12 1.63,0.33 1.57,0.52 1.50,0.71 1.40,0.88 1.29,1.05 1.14,1.19 1.00,1.33 0.83,1.43 0.65,1.53 0.65,1.53 L 0.65,1.53 Z"></path></g><g transform="translate(444.9444444444444 191.55555555555554) rotate(0 -7 8.5)" stroke="none"><path fill="#000000" d="M 0.82,1.64 Q 0.82,1.64 -0.53,2.52 -1.88,3.40 -3.52,4.20 -5.15,4.99 -6.10,5.66 -7.05,6.34 -8.56,7.33 -10.08,8.31 -10.54,9.40 -11.00,10.48 -9.89,11.46 -8.79,12.44 -7.55,14.16 -6.31,15.87 -6.15,16.01 -5.99,16.15 -5.88,16.33 -5.77,16.51 -5.73,16.72 -5.68,16.93 -5.71,17.14 -5.73,17.35 -5.82,17.54 -5.91,17.74 -6.06,17.89 -6.20,18.04 -6.39,18.14 -6.58,18.24 -6.79,18.27 -7.00,18.31 -7.21,18.27 -7.42,18.24 -7.61,18.14 -7.79,18.04 -7.94,17.88 -8.08,17.73 -8.17,17.54 -8.26,17.34 -8.28,17.13 -8.31,16.92 -8.26,16.71 -8.21,16.50 -8.10,16.32 -7.99,16.14 -7.83,16.00 -7.67,15.87 -7.47,15.79 -7.27,15.71 -7.06,15.70 -6.85,15.69 -6.64,15.75 -6.44,15.81 -6.26,15.92 -6.09,16.04 -5.96,16.21 -5.83,16.38 -5.77,16.59 -5.70,16.79 -5.70,17.00 -5.70,17.21 -5.77,17.41 -5.84,17.61 -5.97,17.78 -6.10,17.95 -6.27,18.07 -6.45,18.19 -6.65,18.25 -6.86,18.30 -7.07,18.29 -7.28,18.28 -7.48,18.20 -7.68,18.12 -7.68,18.12 -7.68,18.12 -10.16,17.05 -12.64,15.98 -13.72,14.68 -14.80,13.39 -15.38,11.41 -15.97,9.44 -15.70,8.21 -15.43,6.99 -14.06,5.62 -12.68,4.25 -11.16,3.35 -9.64,2.45 -8.35,1.64 -7.06,0.82 -5.46,0.14 -3.86,-0.53 -2.34,-1.08 -0.82,-1.64 -0.61,-1.71 -0.40,-1.79 -0.18,-1.81 0.03,-1.83 0.25,-1.80 0.47,-1.77 0.67,-1.69 0.88,-1.60 1.06,-1.47 1.24,-1.34 1.38,-1.18 1.53,-1.01 1.63,-0.81 1.72,-0.61 1.77,-0.40 1.82,-0.18 1.82,0.03 1.81,0.25 1.76,0.47 1.70,0.68 1.59,0.87 1.49,1.07 1.34,1.23 1.19,1.39 1.00,1.52 0.82,1.64 0.82,1.64 L 0.82,1.64 Z"></path></g><g transform="translate(433.9444444444444 231.05555555555554) rotate(0 -65 31.75)" stroke="none"><path fill="#1971c2" d="M -0.24,-1.72 Q -0.24,-1.72 0.71,-2.25 1.67,-2.77 2.82,-2.71 3.97,-2.65 5.49,-2.44 7.01,-2.23 8.53,-1.73 10.04,-1.24 11.56,-0.47 13.08,0.28 14.42,1.00 15.77,1.72 16.68,2.44 17.60,3.15 18.34,3.98 19.08,4.81 20.11,6.05 21.14,7.28 21.66,8.23 22.19,9.18 22.77,11.24 23.34,13.30 23.41,14.82 23.47,16.35 23.34,17.57 23.21,18.78 23.00,20.00 22.80,21.22 22.56,22.34 22.32,23.45 21.88,24.66 21.44,25.87 20.78,27.15 20.12,28.44 19.44,29.79 18.75,31.13 18.01,32.47 17.26,33.81 16.47,35.01 15.69,36.21 14.92,37.30 14.15,38.39 13.39,39.43 12.63,40.47 11.56,41.81 10.49,43.14 9.42,44.33 8.36,45.51 7.47,46.44 6.59,47.37 5.63,48.35 4.68,49.32 3.84,50.17 3.00,51.02 1.78,51.93 0.56,52.85 -0.34,53.49 -1.25,54.12 -2.59,54.88 -3.94,55.64 -5.27,56.27 -6.60,56.89 -8.26,57.70 -9.92,58.52 -12.19,59.35 -14.47,60.18 -16.35,60.93 -18.24,61.68 -20.56,62.46 -22.87,63.23 -24.96,63.98 -27.04,64.73 -29.64,65.37 -32.24,66.01 -34.44,66.56 -36.64,67.10 -38.81,67.50 -40.97,67.89 -43.28,68.34 -45.59,68.79 -47.92,69.13 -50.26,69.47 -53.16,69.76 -56.05,70.05 -58.47,70.18 -60.88,70.31 -63.58,70.22 -66.27,70.13 -68.85,69.94 -71.43,69.76 -74.10,69.54 -76.77,69.32 -79.21,69.08 -81.66,68.84 -84.20,68.44 -86.74,68.04 -90.38,67.44 -94.02,66.84 -97.08,66.14 -100.15,65.44 -103.26,64.40 -106.37,63.35 -108.75,62.65 -111.12,61.95 -113.65,61.04 -116.18,60.14 -118.57,59.16 -120.96,58.18 -122.97,57.34 -124.98,56.49 -127.20,55.37 -129.41,54.25 -131.36,53.20 -133.31,52.15 -135.20,50.95 -137.10,49.75 -138.64,48.64 -140.19,47.53 -141.78,46.14 -143.37,44.75 -144.52,43.53 -145.67,42.32 -146.68,41.28 -147.70,40.23 -148.80,38.82 -149.91,37.40 -150.60,36.08 -151.30,34.76 -151.88,33.31 -152.46,31.85 -152.76,29.85 -153.06,27.85 -153.03,25.64 -152.99,23.43 -152.83,21.62 -152.66,19.81 -152.45,18.04 -152.24,16.27 -152.01,14.76 -151.77,13.25 -151.17,11.65 -150.57,10.06 -149.90,8.57 -149.22,7.08 -148.44,5.76 -147.67,4.45 -146.64,3.31 -145.61,2.17 -144.79,1.32 -143.98,0.47 -142.88,-0.32 -141.79,-1.11 -139.61,-2.21 -137.43,-3.32 -136.09,-3.78 -134.76,-4.24 -133.58,-4.60 -132.40,-4.95 -130.96,-5.27 -129.52,-5.58 -128.40,-5.73 -127.29,-5.87 -126.04,-6.06 -124.79,-6.26 -123.11,-6.35 -121.43,-6.45 -120.16,-6.49 -118.90,-6.53 -117.46,-6.69 -116.03,-6.84 -114.58,-6.91 -113.14,-6.99 -111.67,-6.87 -110.19,-6.76 -109.12,-6.71 -108.05,-6.67 -106.02,-6.65 -103.98,-6.62 -102.80,-6.46 -101.61,-6.30 -100.43,-6.22 -99.25,-6.15 -97.90,-5.92 -96.55,-5.69 -94.81,-5.48 -93.06,-5.28 -91.72,-5.03 -90.38,-4.79 -88.85,-4.49 -87.31,-4.20 -86.14,-3.51 -84.96,-2.81 -84.75,-2.77 -84.54,-2.73 -84.36,-2.62 -84.17,-2.52 -84.03,-2.36 -83.89,-2.20 -83.81,-2.01 -83.72,-1.81 -83.70,-1.60 -83.69,-1.39 -83.74,-1.18 -83.79,-0.98 -83.90,-0.80 -84.02,-0.62 -84.18,-0.49 -84.35,-0.35 -84.55,-0.28 -84.75,-0.21 -84.96,-0.20 -85.17,-0.19 -85.37,-0.26 -85.58,-0.32 -85.75,-0.44 -85.92,-0.57 -86.05,-0.74 -86.17,-0.91 -86.23,-1.11 -86.30,-1.32 -86.29,-1.53 -86.29,-1.74 -86.21,-1.94 -86.14,-2.14 -86.01,-2.31 -85.87,-2.47 -85.69,-2.59 -85.52,-2.70 -85.31,-2.75 -85.10,-2.80 -84.89,-2.79 -84.68,-2.77 -84.48,-2.69 -84.29,-2.60 -84.13,-2.46 -83.97,-2.32 -83.87,-2.13 -83.76,-1.95 -83.72,-1.74 -83.68,-1.53 -83.71,-1.32 -83.74,-1.11 -83.83,-0.92 -83.93,-0.73 -84.08,-0.58 -84.23,-0.43 -84.42,-0.33 -84.61,-0.24 -84.82,-0.21 -85.03,-0.18 -85.03,-0.18 -85.03,-0.18 -87.16,0.18 -89.30,0.56 -90.47,0.42 -91.64,0.28 -92.87,0.06 -94.10,-0.15 -95.62,-0.33 -97.14,-0.50 -98.32,-0.71 -99.50,-0.92 -100.93,-1.02 -102.37,-1.12 -104.24,-1.27 -106.11,-1.42 -107.19,-1.44 -108.28,-1.46 -109.46,-1.52 -110.65,-1.57 -111.77,-1.69 -112.90,-1.80 -114.19,-1.74 -115.49,-1.68 -117.12,-1.52 -118.75,-1.35 -119.95,-1.32 -121.15,-1.29 -122.58,-1.22 -124.01,-1.16 -126.23,-0.86 -128.45,-0.56 -129.70,-0.30 -130.95,-0.05 -132.03,0.25 -133.12,0.57 -135.21,1.24 -137.31,1.92 -138.85,2.94 -140.39,3.97 -141.91,5.50 -143.42,7.03 -144.07,8.09 -144.71,9.15 -145.35,10.51 -145.99,11.88 -146.45,12.97 -146.91,14.05 -147.15,15.46 -147.38,16.86 -147.60,18.57 -147.81,20.27 -147.98,21.91 -148.14,23.55 -148.20,25.39 -148.26,27.23 -148.11,28.67 -147.96,30.11 -147.02,32.29 -146.09,34.47 -145.17,35.68 -144.25,36.88 -143.21,37.95 -142.16,39.02 -141.18,40.08 -140.19,41.13 -138.79,42.37 -137.39,43.61 -135.95,44.64 -134.51,45.67 -132.76,46.78 -131.01,47.89 -129.13,48.90 -127.24,49.91 -125.17,50.94 -123.09,51.97 -121.10,52.79 -119.11,53.61 -116.81,54.53 -114.51,55.45 -112.11,56.31 -109.71,57.16 -107.24,57.89 -104.77,58.62 -101.90,59.60 -99.03,60.57 -96.12,61.24 -93.22,61.92 -89.59,62.51 -85.96,63.10 -83.56,63.48 -81.17,63.86 -78.76,64.09 -76.36,64.33 -73.71,64.55 -71.07,64.77 -68.58,64.95 -66.09,65.14 -63.61,65.23 -61.14,65.32 -58.84,65.21 -56.55,65.09 -53.77,64.81 -50.98,64.53 -48.76,64.21 -46.53,63.88 -44.19,63.44 -41.85,62.99 -39.84,62.63 -37.84,62.27 -35.63,61.73 -33.43,61.18 -31.07,60.61 -28.71,60.04 -26.58,59.28 -24.45,58.52 -22.26,57.79 -20.08,57.05 -18.12,56.28 -16.16,55.50 -14.14,54.77 -12.11,54.04 -10.41,53.21 -8.71,52.37 -7.55,51.83 -6.38,51.29 -4.39,50.05 -2.39,48.81 -1.47,48.15 -0.54,47.49 0.27,46.66 1.10,45.82 2.03,44.87 2.95,43.93 3.79,43.04 4.64,42.15 5.60,41.08 6.57,40.01 7.57,38.76 8.57,37.50 9.31,36.49 10.04,35.49 10.76,34.47 11.48,33.45 12.17,32.40 12.87,31.36 13.56,30.11 14.26,28.86 14.94,27.49 15.63,26.13 16.16,25.11 16.69,24.09 17.23,22.23 17.77,20.37 18.06,18.46 18.35,16.55 18.30,15.30 18.25,14.05 17.94,12.82 17.63,11.58 16.82,10.34 16.01,9.10 15.16,8.12 14.32,7.14 13.18,6.36 12.04,5.58 10.82,4.82 9.60,4.05 8.40,3.60 7.20,3.15 6.04,2.82 4.89,2.49 3.62,2.34 2.35,2.20 1.29,1.96 0.24,1.72 0.03,1.73 -0.17,1.73 -0.37,1.69 -0.58,1.64 -0.77,1.55 -0.96,1.45 -1.12,1.32 -1.28,1.18 -1.40,1.01 -1.52,0.84 -1.60,0.64 -1.68,0.45 -1.71,0.24 -1.74,0.03 -1.72,-0.17 -1.70,-0.38 -1.63,-0.58 -1.56,-0.77 -1.44,-0.95 -1.33,-1.13 -1.17,-1.27 -1.02,-1.41 -0.83,-1.51 -0.65,-1.62 -0.45,-1.67 -0.24,-1.72 -0.24,-1.72 L -0.24,-1.72 Z"></path></g><g transform="translate(344.4444444444444 221.05555555555554) rotate(0 1.75 9.75)" stroke="none"><path fill="#1971c2" d="M 1.00,-1.67 Q 1.00,-1.67 2.57,-1.03 4.15,-0.39 5.14,0.30 6.14,1.01 7.11,1.71 8.09,2.42 9.39,3.68 10.69,4.94 10.98,7.17 11.27,9.40 9.85,11.36 8.44,13.31 7.01,14.45 5.59,15.59 4.45,16.48 3.31,17.36 1.94,18.14 0.58,18.92 -2.47,19.82 -5.52,20.72 -5.73,20.76 -5.94,20.81 -6.15,20.78 -6.36,20.76 -6.55,20.66 -6.75,20.57 -6.90,20.42 -7.05,20.28 -7.15,20.09 -7.24,19.90 -7.28,19.69 -7.31,19.48 -7.27,19.27 -7.23,19.06 -7.13,18.87 -7.03,18.69 -6.87,18.54 -6.72,18.40 -6.52,18.31 -6.33,18.23 -6.12,18.20 -5.91,18.18 -5.70,18.23 -5.49,18.28 -5.31,18.39 -5.13,18.51 -5.00,18.67 -4.86,18.83 -4.78,19.03 -4.71,19.23 -4.70,19.44 -4.69,19.65 -4.75,19.86 -4.81,20.06 -4.93,20.24 -5.05,20.41 -5.22,20.54 -5.39,20.66 -5.60,20.73 -5.80,20.79 -6.01,20.79 -6.22,20.79 -6.42,20.72 -6.63,20.65 -6.79,20.52 -6.96,20.39 -7.08,20.21 -7.19,20.03 -7.25,19.83 -7.30,19.62 -7.29,19.41 -7.27,19.20 -7.19,19.00 -7.11,18.80 -6.97,18.64 -6.83,18.48 -6.65,18.38 -6.47,18.27 -6.47,18.27 -6.47,18.27 -4.25,16.20 -2.03,14.13 -0.99,13.60 0.04,13.06 1.17,12.21 2.30,11.36 3.51,10.45 4.72,9.54 5.74,8.88 6.75,8.22 5.91,7.35 5.07,6.48 3.33,5.16 1.59,3.84 0.29,2.76 -1.00,1.67 -1.19,1.53 -1.37,1.38 -1.52,1.20 -1.66,1.01 -1.76,0.80 -1.86,0.58 -1.90,0.35 -1.95,0.12 -1.93,-0.11 -1.92,-0.34 -1.85,-0.57 -1.78,-0.79 -1.66,-0.99 -1.54,-1.20 -1.37,-1.36 -1.21,-1.53 -1.00,-1.65 -0.80,-1.78 -0.58,-1.85 -0.35,-1.92 -0.12,-1.93 0.11,-1.95 0.34,-1.91 0.57,-1.86 0.79,-1.77 1.00,-1.67 1.00,-1.67 L 1.00,-1.67 Z"></path></g><g transform="translate(354.9444444444444 243.05555555555554) rotate(0 0.25 0.25)" stroke="none"><path fill="#1971c2" d="M 2.16,-0.67 Q 2.16,-0.67 2.20,-0.13 2.23,0.40 2.01,0.90 1.78,1.40 1.35,1.73 0.93,2.07 0.39,2.16 -0.13,2.26 -0.65,2.10 -1.17,1.94 -1.55,1.55 -1.94,1.17 -2.10,0.65 -2.26,0.13 -2.16,-0.39 -2.07,-0.93 -1.73,-1.35 -1.39,-1.78 -0.90,-2.01 -0.40,-2.23 0.13,-2.20 0.67,-2.16 1.14,-1.88 1.60,-1.60 1.88,-1.14 L 2.16,-0.67 Z"></path></g><g transform="translate(194.61111111111103 46.66666666666663) rotate(0 202.57000732421875 12.5)"><text x="0" y="0" font-family="Virgil, Segoe UI Emoji" font-size="20px" fill="#1971c2" text-anchor="start" style="white-space: pre;" direction="ltr" dominant-baseline="text-before-edge">若这一行没有点,就把这一行的开始结尾设自己</text></g><g stroke-linecap="round" transform="translate(78.49999999999994 476.27777777777777) rotate(0 46.75 30.5)"><path d="M4.06 3.53 C4.06 3.53, 4.06 3.53, 4.06 3.53 M4.06 3.53 C4.06 3.53, 4.06 3.53, 4.06 3.53 M1.17 12.95 C4.59 9.02, 8 5.09, 10.36 2.38 M1.17 12.95 C4.05 9.63, 6.93 6.32, 10.36 2.38 M1.57 18.59 C6.28 13.17, 10.98 7.76, 16.66 1.23 M1.57 18.59 C5.07 14.56, 8.57 10.54, 16.66 1.23 M1.31 24.99 C6.62 18.87, 11.93 12.76, 21.64 1.59 M1.31 24.99 C8.65 16.54, 15.99 8.1, 21.64 1.59 M1.7 30.63 C7.32 24.16, 12.95 17.69, 27.29 1.2 M1.7 30.63 C9.47 21.7, 17.23 12.77, 27.29 1.2 M1.44 37.03 C11.24 25.75, 21.04 14.48, 32.27 1.56 M1.44 37.03 C9.41 27.86, 17.37 18.7, 32.27 1.56 M1.18 43.42 C14.6 27.98, 28.03 12.54, 37.92 1.16 M1.18 43.42 C11.08 32.03, 20.98 20.64, 37.92 1.16 M0.92 49.82 C9.4 40.07, 17.88 30.31, 42.9 1.52 M0.92 49.82 C12.52 36.47, 24.13 23.12, 42.9 1.52 M2.62 53.96 C13.97 40.91, 25.31 27.86, 48.55 1.13 M2.62 53.96 C19.32 34.75, 36.01 15.55, 48.55 1.13 M4.99 57.34 C17.09 43.41, 29.19 29.49, 53.53 1.49 M4.99 57.34 C15.22 45.57, 25.45 33.8, 53.53 1.49 M7.35 60.71 C19.66 46.55, 31.97 32.39, 59.18 1.09 M7.35 60.71 C25.15 40.24, 42.94 19.77, 59.18 1.09 M12.34 61.07 C26.34 44.96, 40.34 28.86, 64.16 1.45 M12.34 61.07 C32.14 38.3, 51.94 15.52, 64.16 1.45 M16.67 62.19 C37.14 38.64, 57.61 15.09, 69.81 1.06 M16.67 62.19 C32.21 44.31, 47.76 26.42, 69.81 1.06 M21.65 62.55 C40.27 41.13, 58.89 19.72, 74.79 1.42 M21.65 62.55 C34.2 48.12, 46.74 33.69, 74.79 1.42 M27.3 62.15 C38.47 49.3, 49.65 36.44, 79.78 1.78 M27.3 62.15 C38.8 48.93, 50.3 35.7, 79.78 1.78 M32.28 62.51 C45.41 47.41, 58.55 32.3, 84.77 2.14 M32.28 62.51 C50.31 41.78, 68.34 21.04, 84.77 2.14 M37.93 62.12 C54.24 43.35, 70.56 24.58, 89.1 3.25 M37.93 62.12 C51.04 47.03, 64.16 31.95, 89.1 3.25 M42.91 62.48 C52.88 51.01, 62.85 39.55, 91.46 6.63 M42.91 62.48 C62.33 40.14, 81.75 17.8, 91.46 6.63 M48.56 62.09 C65.33 42.8, 82.1 23.5, 93.17 10.77 M48.56 62.09 C60.26 48.62, 71.96 35.16, 93.17 10.77 M53.54 62.45 C67.25 46.68, 80.95 30.92, 95.53 14.14 M53.54 62.45 C63.05 51.51, 72.55 40.58, 95.53 14.14 M59.19 62.05 C71.39 48.01, 83.6 33.97, 95.93 19.79 M59.19 62.05 C67.28 52.74, 75.38 43.42, 95.93 19.79 M64.17 62.41 C76.73 47.97, 89.29 33.52, 95.67 26.19 M64.17 62.41 C75.77 49.07, 87.36 35.74, 95.67 26.19 M69.82 62.02 C75.35 55.65, 80.88 49.29, 96.06 31.83 M69.82 62.02 C76.08 54.81, 82.34 47.61, 96.06 31.83 M74.8 62.38 C80.75 55.54, 86.69 48.71, 95.8 38.23 M74.8 62.38 C81.02 55.22, 87.24 48.07, 95.8 38.23 M79.79 62.74 C84.26 57.59, 88.73 52.45, 94.22 46.13 M79.79 62.74 C84.85 56.92, 89.91 51.1, 94.22 46.13" stroke="#ffc9c9" stroke-width="0.5" fill="none"></path><path d="M15.25 0 M15.25 0 C35.08 0, 54.92 0, 78.25 0 M15.25 0 C28.24 0, 41.23 0, 78.25 0 M78.25 0 C88.42 0, 93.5 5.08, 93.5 15.25 M78.25 0 C88.42 0, 93.5 5.08, 93.5 15.25 M93.5 15.25 C93.5 27, 93.5 38.75, 93.5 45.75 M93.5 15.25 C93.5 21.78, 93.5 28.3, 93.5 45.75 M93.5 45.75 C93.5 55.92, 88.42 61, 78.25 61 M93.5 45.75 C93.5 55.92, 88.42 61, 78.25 61 M78.25 61 C60.81 61, 43.37 61, 15.25 61 M78.25 61 C64.16 61, 50.07 61, 15.25 61 M15.25 61 C5.08 61, 0 55.92, 0 45.75 M15.25 61 C5.08 61, 0 55.92, 0 45.75 M0 45.75 C0 33.69, 0 21.63, 0 15.25 M0 45.75 C0 33.58, 0 21.41, 0 15.25 M0 15.25 C0 5.08, 5.08 0, 15.25 0 M0 15.25 C0 5.08, 5.08 0, 15.25 0" stroke="#1971c2" stroke-width="1" fill="none"></path></g><g stroke-linecap="round" transform="translate(261.74999999999994 474.27777777777777) rotate(0 46.75 30.5)"><path d="M4.06 3.53 C4.06 3.53, 4.06 3.53, 4.06 3.53 M4.06 3.53 C4.06 3.53, 4.06 3.53, 4.06 3.53 M1.17 12.95 C3.62 10.13, 6.07 7.31, 10.36 2.38 M1.17 12.95 C4.55 9.06, 7.94 5.17, 10.36 2.38 M1.57 18.59 C5.23 14.37, 8.9 10.15, 16.66 1.23 M1.57 18.59 C5.28 14.32, 8.99 10.05, 16.66 1.23 M1.31 24.99 C8.41 16.82, 15.51 8.65, 21.64 1.59 M1.31 24.99 C5.42 20.25, 9.54 15.52, 21.64 1.59 M1.7 30.63 C11.49 19.37, 21.28 8.1, 27.29 1.2 M1.7 30.63 C9.21 21.99, 16.72 13.36, 27.29 1.2 M1.44 37.03 C12.86 23.89, 24.29 10.75, 32.27 1.56 M1.44 37.03 C9.8 27.41, 18.16 17.79, 32.27 1.56 M1.18 43.42 C12.91 29.93, 24.64 16.43, 37.92 1.16 M1.18 43.42 C9.73 33.59, 18.28 23.76, 37.92 1.16 M0.92 49.82 C16.27 32.16, 31.63 14.49, 42.9 1.52 M0.92 49.82 C12.27 36.76, 23.62 23.7, 42.9 1.52 M2.62 53.96 C17.59 36.74, 32.56 19.52, 48.55 1.13 M2.62 53.96 C17.41 36.94, 32.2 19.93, 48.55 1.13 M4.99 57.34 C16.91 43.62, 28.84 29.9, 53.53 1.49 M4.99 57.34 C15.7 45.01, 26.41 32.69, 53.53 1.49 M7.35 60.71 C25.51 39.82, 43.68 18.92, 59.18 1.09 M7.35 60.71 C25.21 40.17, 43.07 19.62, 59.18 1.09 M12.34 61.07 C32.84 37.49, 53.35 13.9, 64.16 1.45 M12.34 61.07 C26.21 45.12, 40.08 29.16, 64.16 1.45 M16.67 62.19 C28.15 48.98, 39.63 35.77, 69.81 1.06 M16.67 62.19 C27.76 49.43, 38.85 36.67, 69.81 1.06 M21.65 62.55 C36.34 45.66, 51.02 28.76, 74.79 1.42 M21.65 62.55 C36.65 45.3, 51.64 28.06, 74.79 1.42 M27.3 62.15 C38.88 48.83, 50.47 35.5, 79.78 1.78 M27.3 62.15 C45.54 41.17, 63.77 20.19, 79.78 1.78 M32.28 62.51 C44 49.03, 55.72 35.56, 84.77 2.14 M32.28 62.51 C45.92 46.83, 59.55 31.15, 84.77 2.14 M37.93 62.12 C55.2 42.25, 72.47 22.38, 89.1 3.25 M37.93 62.12 C54.26 43.33, 70.59 24.54, 89.1 3.25 M42.91 62.48 C54.9 48.69, 66.89 34.89, 91.46 6.63 M42.91 62.48 C58.51 44.54, 74.11 26.6, 91.46 6.63 M48.56 62.09 C58.13 51.08, 67.7 40.07, 93.17 10.77 M48.56 62.09 C57.79 51.47, 67.02 40.85, 93.17 10.77 M53.54 62.45 C63.33 51.19, 73.11 39.94, 95.53 14.14 M53.54 62.45 C66.66 47.36, 79.77 32.27, 95.53 14.14 M59.19 62.05 C72.96 46.21, 86.72 30.37, 95.93 19.79 M59.19 62.05 C67.23 52.8, 75.28 43.54, 95.93 19.79 M64.17 62.41 C74.94 50.03, 85.71 37.64, 95.67 26.19 M64.17 62.41 C70.59 55.03, 77 47.65, 95.67 26.19 M69.82 62.02 C75.49 55.49, 81.17 48.96, 96.06 31.83 M69.82 62.02 C77.39 53.31, 84.96 44.59, 96.06 31.83 M74.8 62.38 C79.2 57.32, 83.59 52.27, 95.8 38.23 M74.8 62.38 C80.91 55.35, 87.02 48.32, 95.8 38.23 M79.79 62.74 C82.85 59.22, 85.91 55.7, 94.22 46.13 M79.79 62.74 C83.74 58.19, 87.7 53.64, 94.22 46.13" stroke="#ffc9c9" stroke-width="0.5" fill="none"></path><path d="M15.25 0 M15.25 0 C37.02 0, 58.78 0, 78.25 0 M15.25 0 C40.14 0, 65.03 0, 78.25 0 M78.25 0 C88.42 0, 93.5 5.08, 93.5 15.25 M78.25 0 C88.42 0, 93.5 5.08, 93.5 15.25 M93.5 15.25 C93.5 24.24, 93.5 33.22, 93.5 45.75 M93.5 15.25 C93.5 26.56, 93.5 37.87, 93.5 45.75 M93.5 45.75 C93.5 55.92, 88.42 61, 78.25 61 M93.5 45.75 C93.5 55.92, 88.42 61, 78.25 61 M78.25 61 C61.07 61, 43.89 61, 15.25 61 M78.25 61 C56.69 61, 35.12 61, 15.25 61 M15.25 61 C5.08 61, 0 55.92, 0 45.75 M15.25 61 C5.08 61, 0 55.92, 0 45.75 M0 45.75 C0 37.52, 0 29.28, 0 15.25 M0 45.75 C0 35.41, 0 25.08, 0 15.25 M0 15.25 C0 5.08, 5.08 0, 15.25 0 M0 15.25 C0 5.08, 5.08 0, 15.25 0" stroke="#1971c2" stroke-width="1" fill="none"></path></g><g stroke-linecap="round"><g transform="translate(178.49999999999994 491.77777777777777) rotate(0 39.5 0.7521864366501347)"><path d="M0 0 C13.17 0.25, 65.83 1.25, 79 1.5 M0 0 C13.17 0.25, 65.83 1.25, 79 1.5" stroke="#1971c2" stroke-width="1" fill="none"></path></g><g transform="translate(178.49999999999994 491.77777777777777) rotate(0 39.5 0.7521864366501347)"><path d="M50.62 11.23 C60.08 7.99, 69.54 4.75, 79 1.5 M50.62 11.23 C61.48 7.51, 72.34 3.79, 79 1.5" stroke="#1971c2" stroke-width="1" fill="none"></path></g><g transform="translate(178.49999999999994 491.77777777777777) rotate(0 39.5 0.7521864366501347)"><path d="M51.01 -9.29 C60.34 -5.69, 69.67 -2.1, 79 1.5 M51.01 -9.29 C61.72 -5.16, 72.43 -1.03, 79 1.5" stroke="#1971c2" stroke-width="1" fill="none"></path></g></g><mask></mask><g stroke-linecap="round"><g transform="translate(245.99999999999994 523.2777777777778) rotate(0 -31 -2.5)"><path d="M0 0 C-10.33 -0.83, -51.67 -4.17, -62 -5 M0 0 C-10.33 -0.83, -51.67 -4.17, -62 -5" stroke="#1971c2" stroke-width="1" fill="none"></path></g><g transform="translate(245.99999999999994 523.2777777777778) rotate(0 -31 -2.5)"><path d="M-33.08 -12.96 C-40.26 -10.98, -47.45 -9.01, -62 -5 M-33.08 -12.96 C-42.66 -10.32, -52.24 -7.69, -62 -5" stroke="#1971c2" stroke-width="1" fill="none"></path></g><g transform="translate(245.99999999999994 523.2777777777778) rotate(0 -31 -2.5)"><path d="M-34.73 7.49 C-41.5 4.39, -48.28 1.29, -62 -5 M-34.73 7.49 C-43.76 3.35, -52.8 -0.79, -62 -5" stroke="#1971c2" stroke-width="1" fill="none"></path></g></g><mask></mask><g stroke-linecap="round" transform="translate(454.87499999999994 474.77777777777777) rotate(0 46.75 30.5)"><path d="M4.06 3.53 C4.06 3.53, 4.06 3.53, 4.06 3.53 M4.06 3.53 C4.06 3.53, 4.06 3.53, 4.06 3.53 M1.17 12.95 C3.99 9.71, 6.8 6.47, 10.36 2.38 M1.17 12.95 C4.18 9.49, 7.18 6.04, 10.36 2.38 M1.57 18.59 C7.51 11.76, 13.44 4.93, 16.66 1.23 M1.57 18.59 C5.05 14.58, 8.54 10.57, 16.66 1.23 M1.31 24.99 C8.24 17.01, 15.18 9.03, 21.64 1.59 M1.31 24.99 C7.52 17.84, 13.73 10.69, 21.64 1.59 M1.7 30.63 C10.36 20.67, 19.02 10.7, 27.29 1.2 M1.7 30.63 C10.39 20.63, 19.09 10.63, 27.29 1.2 M1.44 37.03 C12.39 24.43, 23.35 11.82, 32.27 1.56 M1.44 37.03 C9.71 27.51, 17.98 17.99, 32.27 1.56 M1.18 43.42 C11.84 31.15, 22.51 18.88, 37.92 1.16 M1.18 43.42 C9.3 34.08, 17.42 24.74, 37.92 1.16 M0.92 49.82 C14.45 34.25, 27.98 18.69, 42.9 1.52 M0.92 49.82 C16.59 31.79, 32.27 13.76, 42.9 1.52 M2.62 53.96 C14.54 40.24, 26.47 26.53, 48.55 1.13 M2.62 53.96 C20.79 33.06, 38.96 12.16, 48.55 1.13 M4.99 57.34 C19.07 41.13, 33.16 24.92, 53.53 1.49 M4.99 57.34 C19.74 40.37, 34.48 23.4, 53.53 1.49 M7.35 60.71 C24.55 40.93, 41.74 21.15, 59.18 1.09 M7.35 60.71 C23.37 42.29, 39.39 23.86, 59.18 1.09 M12.34 61.07 C32.13 38.31, 51.92 15.54, 64.16 1.45 M12.34 61.07 C26.22 45.1, 40.11 29.12, 64.16 1.45 M16.67 62.19 C30.88 45.84, 45.1 29.48, 69.81 1.06 M16.67 62.19 C34.32 41.88, 51.98 21.57, 69.81 1.06 M21.65 62.55 C42.67 38.37, 63.68 14.2, 74.79 1.42 M21.65 62.55 C42.86 38.16, 64.06 13.77, 74.79 1.42 M27.3 62.15 C43.16 43.91, 59.02 25.66, 79.78 1.78 M27.3 62.15 C46.23 40.38, 65.16 18.6, 79.78 1.78 M32.28 62.51 C42.99 50.2, 53.7 37.88, 84.77 2.14 M32.28 62.51 C50.92 41.07, 69.56 19.63, 84.77 2.14 M37.93 62.12 C55.66 41.72, 73.4 21.32, 89.1 3.25 M37.93 62.12 C48.94 49.45, 59.96 36.77, 89.1 3.25 M42.91 62.48 C60.17 42.63, 77.43 22.77, 91.46 6.63 M42.91 62.48 C58.43 44.63, 73.94 26.79, 91.46 6.63 M48.56 62.09 C65.78 42.27, 83 22.46, 93.17 10.77 M48.56 62.09 C59.34 49.69, 70.11 37.29, 93.17 10.77 M53.54 62.45 C65.01 49.26, 76.48 36.07, 95.53 14.14 M53.54 62.45 C61.96 52.76, 70.38 43.08, 95.53 14.14 M59.19 62.05 C69.52 50.17, 79.85 38.28, 95.93 19.79 M59.19 62.05 C70.59 48.93, 81.99 35.82, 95.93 19.79 M64.17 62.41 C72.2 53.18, 80.22 43.96, 95.67 26.19 M64.17 62.41 C71.45 54.04, 78.72 45.67, 95.67 26.19 M69.82 62.02 C79.46 50.92, 89.11 39.82, 96.06 31.83 M69.82 62.02 C75.52 55.46, 81.22 48.9, 96.06 31.83 M74.8 62.38 C80.55 55.77, 86.29 49.17, 95.8 38.23 M74.8 62.38 C82.56 53.45, 90.32 44.53, 95.8 38.23 M79.79 62.74 C83.48 58.49, 87.17 54.24, 94.22 46.13 M79.79 62.74 C83.88 58.04, 87.96 53.34, 94.22 46.13" stroke="#ffc9c9" stroke-width="0.5" fill="none"></path><path d="M15.25 0 M15.25 0 C39.03 0, 62.8 0, 78.25 0 M15.25 0 C34.09 0, 52.93 0, 78.25 0 M78.25 0 C88.42 0, 93.5 5.08, 93.5 15.25 M78.25 0 C88.42 0, 93.5 5.08, 93.5 15.25 M93.5 15.25 C93.5 26.78, 93.5 38.3, 93.5 45.75 M93.5 15.25 C93.5 25.77, 93.5 36.29, 93.5 45.75 M93.5 45.75 C93.5 55.92, 88.42 61, 78.25 61 M93.5 45.75 C93.5 55.92, 88.42 61, 78.25 61 M78.25 61 C60.63 61, 43.01 61, 15.25 61 M78.25 61 C55.06 61, 31.86 61, 15.25 61 M15.25 61 C5.08 61, 0 55.92, 0 45.75 M15.25 61 C5.08 61, 0 55.92, 0 45.75 M0 45.75 C0 35.56, 0 25.38, 0 15.25 M0 45.75 C0 34.71, 0 23.67, 0 15.25 M0 15.25 C0 5.08, 5.08 0, 15.25 0 M0 15.25 C0 5.08, 5.08 0, 15.25 0" stroke="#1971c2" stroke-width="1" fill="none"></path></g><g stroke-linecap="round"><g transform="translate(371.62499999999994 492.27777777777777) rotate(0 39.5 0.7521864366501347)"><path d="M0 0 C13.17 0.25, 65.83 1.25, 79 1.5 M0 0 C13.17 0.25, 65.83 1.25, 79 1.5" stroke="#1971c2" stroke-width="1" fill="none"></path></g><g transform="translate(371.62499999999994 492.27777777777777) rotate(0 39.5 0.7521864366501347)"><path d="M50.62 11.23 C57.79 8.77, 64.97 6.31, 79 1.5 M50.62 11.23 C61.63 7.45, 72.64 3.68, 79 1.5" stroke="#1971c2" stroke-width="1" fill="none"></path></g><g transform="translate(371.62499999999994 492.27777777777777) rotate(0 39.5 0.7521864366501347)"><path d="M51.01 -9.29 C58.09 -6.56, 65.16 -3.83, 79 1.5 M51.01 -9.29 C61.87 -5.1, 72.73 -0.91, 79 1.5" stroke="#1971c2" stroke-width="1" fill="none"></path></g></g><mask></mask><g stroke-linecap="round"><g transform="translate(439.12499999999994 523.7777777777778) rotate(0 -31 -2.5)"><path d="M0 0 C-10.33 -0.83, -51.67 -4.17, -62 -5 M0 0 C-10.33 -0.83, -51.67 -4.17, -62 -5" stroke="#1971c2" stroke-width="1" fill="none"></path></g><g transform="translate(439.12499999999994 523.7777777777778) rotate(0 -31 -2.5)"><path d="M-33.08 -12.96 C-39.01 -11.33, -44.95 -9.69, -62 -5 M-33.08 -12.96 C-41.11 -10.75, -49.15 -8.54, -62 -5" stroke="#1971c2" stroke-width="1" fill="none"></path></g><g transform="translate(439.12499999999994 523.7777777777778) rotate(0 -31 -2.5)"><path d="M-34.73 7.49 C-40.33 4.93, -45.93 2.36, -62 -5 M-34.73 7.49 C-42.3 4.02, -49.88 0.55, -62 -5" stroke="#1971c2" stroke-width="1" fill="none"></path></g></g><mask></mask><g stroke-linecap="round" transform="translate(658.75 472.27777777777777) rotate(0 46.75 30.5)"><path d="M15.25 0 M15.25 0 C31.1 0, 46.96 0, 78.25 0 M15.25 0 C37.29 0, 59.32 0, 78.25 0 M78.25 0 C88.42 0, 93.5 5.08, 93.5 15.25 M78.25 0 C88.42 0, 93.5 5.08, 93.5 15.25 M93.5 15.25 C93.5 26.18, 93.5 37.12, 93.5 45.75 M93.5 15.25 C93.5 26.87, 93.5 38.5, 93.5 45.75 M93.5 45.75 C93.5 55.92, 88.42 61, 78.25 61 M93.5 45.75 C93.5 55.92, 88.42 61, 78.25 61 M78.25 61 C62.58 61, 46.91 61, 15.25 61 M78.25 61 C53.35 61, 28.45 61, 15.25 61 M15.25 61 C5.08 61, 0 55.92, 0 45.75 M15.25 61 C5.08 61, 0 55.92, 0 45.75 M0 45.75 C0 36.65, 0 27.54, 0 15.25 M0 45.75 C0 37.81, 0 29.86, 0 15.25 M0 15.25 C0 5.08, 5.08 0, 15.25 0 M0 15.25 C0 5.08, 5.08 0, 15.25 0" stroke="#1e1e1e" stroke-width="1" fill="none"></path></g><g transform="translate(689.2700119018555 490.27777777777777) rotate(0 16.22998809814453 12.5)"><text x="16.22998809814453" y="0" font-family="Virgil, Segoe UI Emoji" font-size="20px" fill="#1e1e1e" text-anchor="middle" style="white-space: pre;" direction="ltr" dominant-baseline="text-before-edge">new</text></g><g transform="translate(479.99999999999994 564.4444444444443) rotate(0 0 0.27777777777777146)" stroke="none"><path fill="#1e1e1e" d="M 1.35,-0.42 Q 1.35,-0.42 1.38,-0.08 1.40,0.25 1.26,0.56 1.12,0.87 0.85,1.08 0.58,1.29 0.24,1.36 -0.08,1.42 -0.41,1.32 -0.73,1.21 -0.97,0.97 -1.21,0.73 -1.32,0.41 -1.42,0.08 -1.36,-0.24 -1.29,-0.58 -1.08,-0.85 -0.87,-1.12 -0.56,-1.26 -0.25,-1.40 0.08,-1.38 0.42,-1.35 0.71,-1.18 1.00,-1.00 1.18,-0.71 L 1.35,-0.42 Z"></path></g><g transform="translate(543.8888888888889 476.6666666666667) rotate(0 58.6111111111112 -11.666666666666686)" stroke="none"><path fill="#1e1e1e" d="M -1.17,-0.70 Q -1.17,-0.70 -0.84,-1.58 -0.51,-2.47 0.18,-3.80 0.88,-5.13 1.72,-6.38 2.57,-7.63 3.66,-9.04 4.75,-10.45 5.99,-12.20 7.24,-13.95 8.17,-15.02 9.10,-16.08 10.04,-16.98 10.98,-17.88 12.12,-18.77 13.25,-19.67 14.19,-20.23 15.13,-20.80 16.75,-21.84 18.38,-22.87 20.19,-23.67 22.01,-24.47 23.63,-25.47 25.25,-26.46 27.07,-27.31 28.89,-28.15 30.39,-28.73 31.89,-29.30 33.40,-29.77 34.92,-30.23 36.48,-30.65 38.04,-31.08 39.57,-31.38 41.09,-31.68 42.70,-31.98 44.30,-32.27 46.31,-32.56 48.32,-32.84 49.85,-32.89 51.38,-32.94 52.89,-32.72 54.40,-32.51 56.17,-32.03 57.94,-31.55 59.50,-31.02 61.06,-30.49 62.71,-29.94 64.36,-29.39 65.82,-28.83 67.28,-28.27 68.79,-27.70 70.30,-27.13 71.50,-26.60 72.69,-26.07 73.82,-25.52 74.94,-24.96 76.42,-24.14 77.89,-23.32 79.69,-22.54 81.49,-21.75 82.87,-21.16 84.25,-20.57 85.25,-20.06 86.25,-19.56 87.61,-18.63 88.96,-17.71 90.52,-16.69 92.08,-15.67 93.47,-14.61 94.87,-13.55 96.06,-12.85 97.25,-12.14 98.43,-11.29 99.61,-10.44 100.87,-9.57 102.13,-8.69 103.06,-8.17 103.99,-7.65 105.00,-6.67 106.00,-5.69 107.18,-4.74 108.36,-3.79 109.38,-2.86 110.39,-1.94 111.28,-1.01 112.17,-0.09 112.93,0.66 113.69,1.41 114.52,2.23 115.34,3.04 116.61,4.84 117.88,6.64 118.05,6.78 118.21,6.91 118.32,7.09 118.43,7.27 118.48,7.48 118.53,7.69 118.51,7.90 118.49,8.11 118.40,8.31 118.31,8.50 118.17,8.66 118.02,8.81 117.84,8.91 117.65,9.01 117.44,9.05 117.23,9.09 117.02,9.05 116.81,9.02 116.62,8.92 116.43,8.83 116.28,8.67 116.14,8.52 116.05,8.33 115.96,8.14 115.93,7.93 115.91,7.71 115.95,7.51 115.99,7.30 116.10,7.12 116.21,6.93 116.37,6.79 116.53,6.65 116.73,6.57 116.92,6.49 117.13,6.48 117.35,6.47 117.55,6.52 117.76,6.58 117.93,6.69 118.11,6.81 118.24,6.98 118.37,7.15 118.44,7.35 118.51,7.55 118.51,7.76 118.52,7.97 118.45,8.18 118.38,8.38 118.26,8.55 118.13,8.72 117.95,8.84 117.78,8.96 117.58,9.02 117.37,9.08 117.16,9.07 116.95,9.06 116.75,8.98 116.55,8.90 116.55,8.90 116.55,8.90 114.52,7.40 112.48,5.89 111.67,5.06 110.85,4.23 110.09,3.45 109.33,2.66 108.34,1.60 107.34,0.53 106.51,-0.22 105.68,-0.98 104.89,-1.77 104.10,-2.55 103.14,-3.44 102.18,-4.32 101.00,-5.01 99.82,-5.70 98.71,-6.48 97.60,-7.27 96.49,-8.07 95.39,-8.86 94.00,-9.71 92.61,-10.56 91.75,-11.20 90.89,-11.85 89.66,-12.71 88.43,-13.57 87.03,-14.46 85.63,-15.35 84.33,-16.18 83.03,-17.01 81.97,-17.38 80.90,-17.76 79.63,-18.52 78.36,-19.28 77.06,-19.76 75.76,-20.24 74.41,-20.98 73.07,-21.72 71.98,-22.25 70.88,-22.79 69.86,-23.23 68.85,-23.68 67.43,-24.22 66.01,-24.76 64.59,-25.31 63.18,-25.86 61.53,-26.41 59.88,-26.97 58.29,-27.50 56.70,-28.03 55.41,-28.41 54.12,-28.79 52.77,-29.01 51.43,-29.23 50.02,-29.18 48.61,-29.13 46.68,-28.85 44.75,-28.58 43.20,-28.31 41.66,-28.05 40.12,-27.76 38.58,-27.47 37.29,-27.12 36.00,-26.78 34.31,-26.29 32.63,-25.79 31.53,-25.35 30.43,-24.92 29.42,-24.44 28.41,-23.97 26.99,-23.28 25.57,-22.58 23.65,-21.60 21.73,-20.62 20.15,-19.74 18.58,-18.87 17.02,-17.94 15.45,-17.02 14.41,-16.21 13.37,-15.40 12.37,-14.45 11.37,-13.49 10.60,-12.61 9.84,-11.72 8.98,-10.55 8.13,-9.38 7.30,-8.33 6.47,-7.27 5.84,-6.37 5.22,-5.47 4.56,-4.46 3.89,-3.45 3.16,-2.08 2.43,-0.71 1.80,-0.00 1.17,0.70 1.06,0.83 0.96,0.96 0.83,1.06 0.71,1.16 0.56,1.23 0.41,1.30 0.24,1.33 0.08,1.36 -0.07,1.35 -0.24,1.34 -0.39,1.29 -0.55,1.24 -0.69,1.16 -0.83,1.07 -0.95,0.96 -1.07,0.84 -1.15,0.70 -1.24,0.56 -1.29,0.40 -1.34,0.25 -1.35,0.08 -1.36,-0.07 -1.33,-0.24 -1.30,-0.40 -1.23,-0.55 -1.17,-0.70 -1.17,-0.70 L -1.17,-0.70 Z"></path></g><g transform="translate(658.3333333333335 467.77777777777777) rotate(0 -5.000000000000227 10.555555555555543)" stroke="none"><path fill="#1e1e1e" d="M 1.47,-0.59 Q 1.47,-0.59 2.35,0.91 3.23,2.41 3.68,3.58 4.13,4.76 4.80,6.64 5.47,8.53 6.00,9.47 6.52,10.41 7.02,11.88 7.53,13.34 7.86,14.49 8.19,15.64 7.52,17.35 6.84,19.06 5.41,20.27 3.99,21.47 2.71,21.60 1.43,21.73 -0.16,21.98 -1.76,22.23 -3.91,22.43 -6.06,22.64 -8.07,22.77 -10.09,22.89 -12.79,22.58 -15.50,22.27 -15.70,22.34 -15.90,22.40 -16.12,22.40 -16.33,22.40 -16.53,22.33 -16.73,22.26 -16.90,22.13 -17.07,22.00 -17.18,21.83 -17.30,21.65 -17.36,21.44 -17.41,21.24 -17.40,21.03 -17.39,20.81 -17.31,20.62 -17.23,20.42 -17.09,20.26 -16.95,20.10 -16.77,19.99 -16.58,19.88 -16.38,19.84 -16.17,19.79 -15.96,19.82 -15.75,19.84 -15.55,19.93 -15.36,20.02 -15.21,20.17 -15.05,20.32 -14.96,20.51 -14.86,20.70 -14.83,20.91 -14.79,21.12 -14.83,21.33 -14.86,21.54 -14.97,21.72 -15.07,21.91 -15.22,22.05 -15.38,22.20 -15.57,22.29 -15.76,22.37 -15.98,22.40 -16.19,22.42 -16.39,22.37 -16.60,22.32 -16.78,22.21 -16.96,22.10 -17.10,21.94 -17.24,21.77 -17.31,21.58 -17.39,21.38 -17.40,21.17 -17.41,20.95 -17.35,20.75 -17.29,20.55 -17.17,20.37 -17.05,20.20 -16.88,20.07 -16.71,19.94 -16.71,19.94 -16.71,19.94 -13.47,19.03 -10.23,18.11 -8.45,18.03 -6.66,17.95 -4.39,17.75 -2.12,17.55 -0.44,17.32 1.23,17.09 2.41,16.83 3.58,16.57 3.44,15.51 3.30,14.45 2.97,13.43 2.64,12.40 2.01,11.17 1.39,9.94 0.76,8.09 0.14,6.25 -0.26,5.11 -0.67,3.97 -1.07,2.28 -1.47,0.59 -1.52,0.40 -1.57,0.22 -1.58,0.02 -1.58,-0.16 -1.54,-0.35 -1.49,-0.53 -1.41,-0.70 -1.32,-0.88 -1.20,-1.02 -1.07,-1.17 -0.92,-1.28 -0.76,-1.39 -0.58,-1.46 -0.40,-1.53 -0.21,-1.56 -0.02,-1.59 0.16,-1.57 0.35,-1.55 0.53,-1.48 0.71,-1.42 0.87,-1.31 1.03,-1.21 1.16,-1.06 1.29,-0.92 1.38,-0.75 1.47,-0.59 1.47,-0.59 L 1.47,-0.59 Z"></path></g><g transform="translate(576.1111111111111 409.99999999999994) rotate(0 11.666666666666629 12.222222222222285)" stroke="none"><path fill="#1e1e1e" d="M 0.45,-1.82 Q 0.45,-1.82 1.38,-1.78 2.30,-1.74 3.30,-0.62 4.31,0.48 4.67,1.99 5.02,3.51 5.13,4.73 5.24,5.96 5.29,7.45 5.34,8.94 5.20,10.37 5.06,11.79 4.84,13.32 4.63,14.85 4.56,16.33 4.48,17.80 4.27,19.11 4.06,20.42 3.72,21.87 3.38,23.32 3.20,24.23 3.01,25.14 2.94,25.46 2.88,25.79 2.74,26.09 2.60,26.39 2.39,26.65 2.18,26.91 1.92,27.11 1.65,27.31 1.35,27.44 1.04,27.58 0.72,27.63 0.39,27.69 0.06,27.66 -0.26,27.64 -0.58,27.54 -0.89,27.43 -1.18,27.26 -1.46,27.08 -1.69,26.85 -1.92,26.61 -2.09,26.32 -2.26,26.03 -2.35,25.72 -2.45,25.40 -2.46,25.07 -2.48,24.73 -2.17,23.31 -1.87,21.88 -1.41,20.78 -0.95,19.69 -0.24,18.38 0.45,17.08 1.22,15.74 1.99,14.40 2.65,13.33 3.32,12.26 4.18,11.19 5.03,10.12 6.33,8.71 7.63,7.30 8.38,6.53 9.13,5.77 10.42,4.92 11.72,4.08 13.39,3.50 15.05,2.92 16.24,2.83 17.43,2.74 18.57,2.72 19.72,2.70 21.52,3.47 23.33,4.24 23.54,4.27 23.75,4.31 23.93,4.41 24.12,4.50 24.27,4.66 24.41,4.81 24.50,5.01 24.59,5.20 24.62,5.41 24.64,5.62 24.59,5.83 24.55,6.04 24.44,6.22 24.33,6.40 24.17,6.54 24.01,6.68 23.81,6.75 23.61,6.83 23.40,6.84 23.19,6.86 22.98,6.80 22.78,6.74 22.60,6.62 22.43,6.50 22.30,6.34 22.17,6.17 22.10,5.96 22.03,5.76 22.03,5.55 22.03,5.34 22.10,5.14 22.17,4.94 22.30,4.77 22.42,4.60 22.60,4.48 22.78,4.36 22.98,4.30 23.19,4.24 23.40,4.26 23.61,4.27 23.81,4.35 24.00,4.42 24.17,4.56 24.33,4.70 24.44,4.88 24.55,5.06 24.59,5.27 24.64,5.48 24.62,5.69 24.59,5.90 24.50,6.09 24.42,6.29 24.27,6.44 24.12,6.60 23.94,6.70 23.75,6.79 23.54,6.83 23.33,6.86 23.33,6.86 23.33,6.86 20.49,7.65 17.66,8.43 16.54,8.37 15.43,8.31 14.29,9.03 13.15,9.75 11.87,11.06 10.59,12.38 9.35,13.81 8.11,15.23 7.49,16.23 6.87,17.23 6.13,18.50 5.39,19.77 4.80,20.85 4.20,21.93 3.60,23.53 3.01,25.14 2.94,25.46 2.88,25.79 2.74,26.09 2.60,26.39 2.39,26.65 2.18,26.91 1.92,27.11 1.65,27.31 1.35,27.44 1.04,27.58 0.72,27.63 0.39,27.69 0.06,27.66 -0.26,27.64 -0.58,27.54 -0.89,27.43 -1.18,27.26 -1.46,27.08 -1.69,26.85 -1.92,26.61 -2.09,26.32 -2.26,26.03 -2.35,25.72 -2.45,25.40 -2.46,25.07 -2.48,24.73 -2.28,24.30 -2.09,23.86 -1.88,22.33 -1.67,20.80 -1.27,19.14 -0.87,17.48 -0.75,15.78 -0.64,14.07 -0.41,12.62 -0.19,11.18 -0.04,10.12 0.10,9.05 0.09,7.69 0.08,6.32 0.16,4.35 0.25,2.38 -0.10,2.10 -0.45,1.82 -0.66,1.74 -0.87,1.66 -1.06,1.53 -1.25,1.40 -1.39,1.23 -1.54,1.06 -1.65,0.86 -1.75,0.66 -1.81,0.44 -1.86,0.22 -1.86,-0.00 -1.86,-0.23 -1.80,-0.45 -1.75,-0.67 -1.64,-0.87 -1.54,-1.07 -1.39,-1.24 -1.24,-1.41 -1.05,-1.53 -0.86,-1.66 -0.65,-1.74 -0.44,-1.82 -0.21,-1.85 0.00,-1.87 0.23,-1.85 0.45,-1.82 0.45,-1.82 L 0.45,-1.82 Z"></path></g><g transform="translate(73.33333333333331 520) rotate(0 352.22222222222234 102.50000000000006)" stroke="none"><path fill="#1e1e1e" d="M 0.51,1.90 Q 0.51,1.90 -1.25,2.30 -3.03,2.70 -4.34,3.19 -5.64,3.68 -7.64,4.53 -9.63,5.37 -11.11,6.04 -12.59,6.71 -13.78,7.44 -14.96,8.16 -16.31,8.97 -17.65,9.77 -18.82,10.56 -19.98,11.36 -20.85,12.24 -21.72,13.12 -22.62,14.02 -23.52,14.92 -24.47,16.17 -25.42,17.41 -26.33,18.62 -27.24,19.83 -28.08,21.09 -28.92,22.36 -30.29,24.09 -31.67,25.82 -33.19,27.80 -34.70,29.78 -36.30,31.89 -37.91,34.01 -39.24,35.72 -40.56,37.43 -41.74,39.08 -42.92,40.74 -44.42,42.61 -45.92,44.48 -47.32,46.35 -48.73,48.23 -49.93,50.11 -51.14,51.99 -51.97,53.41 -52.80,54.83 -53.61,56.38 -54.41,57.94 -54.88,59.16 -55.34,60.38 -55.89,61.62 -56.44,62.86 -56.96,64.27 -57.47,65.69 -57.86,66.77 -58.25,67.86 -58.37,68.94 -58.49,70.03 -58.73,71.40 -58.97,72.77 -59.05,74.05 -59.14,75.33 -59.35,76.92 -59.56,78.51 -59.64,79.90 -59.71,81.29 -59.91,83.07 -60.11,84.86 -60.36,87.03 -60.60,89.20 -60.70,91.19 -60.80,93.18 -61.00,95.83 -61.20,98.48 -61.28,100.83 -61.36,103.19 -61.24,106.21 -61.11,109.24 -60.90,111.79 -60.69,114.35 -60.45,116.87 -60.20,119.39 -59.79,122.19 -59.39,124.98 -58.91,127.42 -58.42,129.86 -57.75,132.81 -57.08,135.76 -56.16,139.06 -55.24,142.36 -54.08,145.12 -52.92,147.87 -51.50,150.62 -50.07,153.37 -48.96,155.53 -47.86,157.69 -45.71,160.56 -43.56,163.43 -41.66,165.98 -39.75,168.52 -37.38,171.32 -35.01,174.12 -32.27,176.87 -29.54,179.63 -26.96,181.89 -24.38,184.16 -21.85,186.24 -19.33,188.32 -16.08,190.43 -12.83,192.53 -9.69,194.39 -6.55,196.24 -1.89,198.60 2.75,200.96 6.61,202.59 10.47,204.22 14.49,205.70 18.51,207.19 23.24,208.78 27.98,210.36 32.37,211.67 36.76,212.98 41.81,214.33 46.85,215.68 52.32,216.90 57.79,218.11 62.52,219.11 67.25,220.12 72.58,221.03 77.91,221.93 82.70,222.47 87.48,223.01 93.04,223.57 98.60,224.12 103.51,224.52 108.41,224.91 112.89,225.23 117.38,225.56 123.57,225.86 129.77,226.16 134.79,226.29 139.81,226.42 144.50,226.47 149.18,226.53 154.69,226.55 160.19,226.58 164.90,226.43 169.60,226.28 174.99,226.22 180.37,226.16 185.99,225.97 191.61,225.78 196.57,225.70 201.54,225.62 207.00,225.58 212.47,225.54 217.19,225.53 221.91,225.51 226.34,225.66 230.77,225.82 236.62,225.88 242.46,225.95 247.21,226.13 251.96,226.31 256.99,226.39 262.01,226.47 266.42,226.66 270.82,226.85 275.06,226.92 279.29,227.00 284.28,227.03 289.28,227.07 294.57,226.92 299.86,226.77 304.50,226.55 309.14,226.32 314.93,225.91 320.72,225.49 326.07,225.16 331.43,224.82 337.20,224.35 342.97,223.89 348.47,223.53 353.98,223.17 360.28,222.53 366.57,221.90 374.70,221.15 382.83,220.40 388.33,219.76 393.84,219.13 400.68,218.53 407.53,217.94 413.78,217.36 420.03,216.79 425.88,216.23 431.72,215.66 439.81,214.94 447.89,214.22 454.54,213.75 461.18,213.28 467.04,212.92 472.90,212.55 479.37,212.07 485.84,211.60 491.50,211.39 497.16,211.19 503.22,210.95 509.29,210.71 515.24,210.60 521.19,210.49 526.44,210.45 531.68,210.41 537.24,210.23 542.80,210.05 547.58,209.97 552.36,209.89 557.75,209.85 563.14,209.82 568.76,209.64 574.38,209.47 579.15,209.24 583.93,209.00 589.32,208.74 594.71,208.49 599.39,208.21 604.07,207.94 608.58,207.51 613.09,207.08 618.22,206.57 623.34,206.07 627.73,205.53 632.13,205.00 637.02,204.29 641.91,203.58 647.46,202.49 653.01,201.41 657.62,200.46 662.23,199.52 667.03,198.32 671.83,197.13 675.93,195.98 680.04,194.84 684.33,193.56 688.63,192.29 692.84,190.95 697.05,189.61 700.20,188.27 703.36,186.93 706.76,185.25 710.16,183.58 712.87,182.08 715.57,180.58 718.13,178.99 720.70,177.41 723.37,175.62 726.04,173.84 728.41,171.99 730.78,170.15 732.76,168.56 734.74,166.97 736.65,165.21 738.57,163.46 740.16,161.78 741.74,160.11 743.21,158.44 744.68,156.78 746.23,154.81 747.78,152.84 749.37,150.59 750.97,148.33 752.42,146.10 753.88,143.87 755.13,141.94 756.39,140.01 757.36,138.29 758.32,136.56 759.16,134.48 759.99,132.40 760.83,130.21 761.68,128.02 762.32,125.87 762.96,123.72 763.37,121.61 763.77,119.49 764.10,117.46 764.43,115.43 764.72,113.46 765.01,111.48 764.95,109.87 764.90,108.26 764.88,106.52 764.86,104.79 764.53,102.61 764.21,100.44 763.76,98.42 763.32,96.40 762.65,93.97 761.98,91.54 761.25,89.63 760.52,87.73 759.72,85.78 758.92,83.84 757.98,81.97 757.03,80.10 756.13,78.31 755.23,76.52 754.11,74.75 752.98,72.97 751.70,71.10 750.42,69.22 749.15,67.71 747.87,66.20 746.49,64.55 745.11,62.91 743.51,60.71 741.91,58.51 740.18,56.38 738.45,54.25 736.90,52.37 735.35,50.49 733.68,48.19 732.01,45.89 730.55,44.02 729.09,42.14 727.21,39.94 725.34,37.73 723.69,35.62 722.04,33.50 720.69,31.62 719.34,29.75 717.37,27.25 715.40,24.76 713.77,22.74 712.13,20.72 710.55,19.15 708.98,17.58 707.04,15.80 705.09,14.01 703.32,12.46 701.54,10.90 699.24,9.18 696.95,7.45 695.14,6.04 693.32,4.63 691.70,3.63 690.09,2.64 688.19,1.35 686.30,0.07 684.50,-1.29 682.69,-2.67 681.25,-3.92 679.81,-5.18 678.38,-6.53 676.96,-7.87 675.78,-8.86 674.61,-9.84 673.38,-10.69 672.15,-11.54 671.02,-12.48 669.89,-13.41 668.84,-14.24 667.79,-15.06 666.96,-15.79 666.13,-16.51 665.03,-17.15 663.93,-17.79 662.81,-18.51 661.69,-19.23 662.62,-21.07 663.56,-22.91 663.46,-23.03 663.35,-23.15 663.28,-23.29 663.21,-23.43 663.17,-23.58 663.13,-23.73 663.14,-23.89 663.14,-24.05 663.18,-24.21 663.21,-24.36 663.29,-24.50 663.36,-24.64 663.47,-24.76 663.58,-24.87 663.71,-24.96 663.84,-25.05 663.99,-25.11 664.13,-25.16 664.29,-25.18 664.45,-25.20 664.61,-25.18 664.76,-25.16 664.91,-25.10 665.06,-25.04 665.19,-24.95 665.32,-24.86 664.79,-25.02 664.26,-25.19 664.48,-25.18 664.69,-25.17 664.89,-25.10 665.09,-25.03 665.25,-24.89 665.42,-24.76 665.53,-24.58 665.65,-24.40 665.70,-24.19 665.75,-23.99 665.73,-23.78 665.71,-23.56 665.63,-23.37 665.54,-23.17 665.40,-23.02 665.26,-22.86 665.08,-22.75 664.89,-22.65 664.68,-22.61 664.47,-22.57 664.26,-22.60 664.05,-22.63 663.86,-22.72 663.67,-22.82 663.52,-22.97 663.37,-23.12 663.28,-23.31 663.18,-23.50 663.15,-23.71 663.13,-23.92 663.17,-24.13 663.21,-24.34 663.31,-24.52 663.42,-24.71 663.58,-24.85 663.73,-24.99 663.93,-25.08 664.13,-25.16 664.34,-25.18 664.55,-25.19 664.75,-25.14 664.96,-25.09 665.14,-24.97 665.32,-24.86 665.45,-24.69 665.58,-24.53 665.66,-24.33 665.73,-24.13 665.74,-23.92 665.74,-23.70 665.68,-23.50 665.61,-23.30 665.49,-23.13 665.37,-22.95 665.19,-22.83 665.02,-22.71 664.29,-22.81 663.56,-22.91 663.46,-23.03 663.35,-23.15 663.28,-23.29 663.21,-23.43 663.17,-23.58 663.13,-23.73 663.14,-23.89 663.14,-24.05 663.18,-24.20 663.21,-24.36 663.29,-24.50 663.36,-24.64 663.47,-24.76 663.58,-24.87 663.71,-24.96 663.84,-25.05 663.99,-25.11 664.13,-25.16 664.29,-25.18 664.45,-25.20 664.61,-25.18 664.76,-25.16 664.91,-25.10 665.06,-25.04 665.19,-24.95 665.32,-24.86 665.32,-23.88 665.32,-22.90 666.51,-22.30 667.71,-21.71 669.33,-20.40 670.95,-19.08 672.06,-18.21 673.17,-17.34 674.12,-16.54 675.08,-15.73 676.49,-14.74 677.90,-13.75 679.18,-12.66 680.46,-11.58 681.81,-10.30 683.16,-9.02 684.47,-7.87 685.79,-6.72 687.47,-5.43 689.16,-4.14 690.97,-2.91 692.78,-1.68 694.61,-0.54 696.44,0.60 698.23,1.99 700.02,3.38 702.46,5.23 704.89,7.07 706.71,8.67 708.54,10.27 710.56,12.13 712.58,14.00 714.32,15.76 716.07,17.52 717.73,19.57 719.39,21.62 721.42,24.21 723.45,26.79 724.74,28.60 726.04,30.40 727.61,32.43 729.19,34.46 731.13,36.76 733.07,39.05 734.58,41.00 736.10,42.94 737.66,45.12 739.23,47.30 740.79,49.19 742.34,51.09 744.16,53.33 745.97,55.58 747.45,57.65 748.94,59.72 750.30,61.36 751.67,63.01 753.10,64.72 754.52,66.44 755.84,68.39 757.16,70.35 758.39,72.33 759.63,74.32 760.52,76.11 761.42,77.90 762.43,79.95 763.45,81.99 764.26,84.00 765.07,86.01 765.86,88.14 766.66,90.27 767.35,92.82 768.03,95.38 768.50,97.58 768.96,99.78 769.29,102.26 769.61,104.75 769.61,106.47 769.62,108.18 769.62,110.18 769.62,112.18 769.29,114.20 768.96,116.21 768.59,118.30 768.22,120.40 767.72,122.72 767.21,125.04 766.48,127.33 765.75,129.61 764.86,131.84 763.97,134.06 762.98,136.36 761.98,138.67 760.91,140.48 759.83,142.30 758.54,144.21 757.25,146.11 755.72,148.37 754.19,150.64 752.51,152.96 750.83,155.27 749.20,157.30 747.56,159.32 746.05,161.04 744.53,162.75 742.85,164.52 741.17,166.29 739.16,168.13 737.15,169.97 735.15,171.58 733.14,173.19 730.66,175.11 728.17,177.03 725.44,178.85 722.71,180.66 720.06,182.29 717.42,183.91 714.63,185.45 711.85,187.00 708.35,188.72 704.85,190.45 701.53,191.85 698.21,193.25 693.97,194.60 689.72,195.95 685.40,197.25 681.07,198.55 676.91,199.70 672.75,200.86 667.88,202.06 663.00,203.27 658.37,204.22 653.75,205.16 648.10,206.28 642.45,207.39 637.52,208.09 632.59,208.79 628.15,209.33 623.71,209.86 618.58,210.36 613.45,210.86 608.87,211.30 604.29,211.73 599.59,212.00 594.89,212.27 589.50,212.53 584.11,212.79 579.30,213.02 574.49,213.25 568.83,213.43 563.16,213.60 557.79,213.63 552.42,213.66 547.67,213.73 542.92,213.80 537.32,213.98 531.71,214.16 526.49,214.20 521.26,214.25 515.35,214.35 509.44,214.45 503.37,214.70 497.30,214.95 491.70,215.15 486.11,215.34 479.62,215.81 473.13,216.28 467.28,216.62 461.44,216.97 454.83,217.43 448.22,217.89 440.15,218.61 432.08,219.32 426.22,219.88 420.36,220.44 414.10,221.01 407.85,221.57 401.05,222.16 394.25,222.75 388.71,223.38 383.16,224.02 375.05,224.77 366.93,225.51 360.57,226.14 354.21,226.76 348.73,227.12 343.25,227.47 337.45,227.93 331.65,228.38 326.31,228.72 320.97,229.05 315.14,229.46 309.31,229.88 304.63,230.09 299.96,230.31 294.60,230.45 289.25,230.60 284.24,230.56 279.22,230.53 274.94,230.44 270.67,230.35 266.31,230.15 261.96,229.95 256.89,229.87 251.83,229.79 247.12,229.60 242.42,229.40 236.54,229.34 230.65,229.27 226.29,229.12 221.92,228.97 217.21,228.98 212.49,228.99 207.04,229.02 201.59,229.05 196.66,229.13 191.72,229.21 186.07,229.39 180.41,229.57 175.06,229.64 169.71,229.71 164.94,229.86 160.18,230.01 154.66,229.99 149.14,229.97 144.43,229.92 139.72,229.87 134.67,229.74 129.61,229.62 123.36,229.32 117.12,229.02 112.63,228.69 108.14,228.36 103.20,227.97 98.26,227.57 92.68,227.03 87.09,226.48 82.21,225.94 77.33,225.39 71.92,224.49 66.52,223.59 61.77,222.61 57.02,221.62 51.47,220.40 45.92,219.18 40.82,217.81 35.72,216.45 31.28,215.12 26.83,213.80 22.04,212.19 17.26,210.58 13.16,209.06 9.06,207.54 5.09,205.85 1.12,204.16 -3.62,201.73 -8.36,199.30 -11.56,197.39 -14.76,195.48 -18.15,193.25 -21.54,191.01 -24.11,188.89 -26.69,186.78 -29.35,184.42 -32.00,182.07 -34.83,179.22 -37.65,176.36 -40.09,173.48 -42.53,170.60 -44.44,168.05 -46.34,165.50 -48.64,162.38 -50.94,159.27 -52.04,157.12 -53.15,154.98 -54.65,152.10 -56.15,149.23 -57.39,146.27 -58.62,143.31 -59.56,139.93 -60.51,136.56 -61.22,133.56 -61.93,130.57 -62.45,128.04 -62.97,125.52 -63.42,122.64 -63.86,119.75 -64.11,117.20 -64.37,114.65 -64.58,112.02 -64.80,109.38 -64.92,106.22 -65.04,103.06 -64.95,100.63 -64.85,98.20 -64.65,95.59 -64.44,92.99 -64.33,90.90 -64.22,88.80 -63.98,86.62 -63.74,84.45 -63.55,82.76 -63.36,81.07 -63.26,79.56 -63.17,78.04 -62.98,76.55 -62.79,75.07 -62.67,73.61 -62.56,72.15 -62.34,70.85 -62.12,69.55 -61.91,68.10 -61.69,66.65 -61.29,65.53 -60.89,64.41 -60.31,62.89 -59.73,61.38 -59.20,60.22 -58.67,59.07 -58.11,57.67 -57.54,56.28 -56.67,54.68 -55.80,53.08 -54.93,51.59 -54.07,50.09 -52.78,48.12 -51.50,46.15 -50.06,44.23 -48.62,42.32 -47.18,40.52 -45.74,38.72 -44.52,37.02 -43.30,35.31 -41.98,33.62 -40.67,31.92 -39.06,29.79 -37.46,27.66 -35.93,25.66 -34.39,23.66 -33.12,22.04 -31.84,20.42 -30.95,19.06 -30.05,17.70 -29.13,16.49 -28.22,15.28 -27.12,13.85 -26.03,12.41 -25.12,11.51 -24.22,10.61 -23.10,9.52 -21.99,8.43 -20.74,7.57 -19.49,6.72 -18.15,5.91 -16.81,5.11 -15.44,4.29 -14.08,3.47 -12.55,2.77 -11.03,2.08 -8.97,1.20 -6.92,0.31 -5.45,-0.23 -3.99,-0.78 -2.25,-1.34 -0.51,-1.90 -0.28,-1.94 -0.04,-1.97 0.18,-1.95 0.42,-1.92 0.65,-1.85 0.87,-1.77 1.07,-1.64 1.27,-1.51 1.43,-1.33 1.59,-1.16 1.71,-0.95 1.82,-0.74 1.89,-0.51 1.95,-0.28 1.96,-0.04 1.96,0.18 1.91,0.42 1.86,0.65 1.75,0.86 1.65,1.08 1.49,1.26 1.34,1.44 1.15,1.58 0.96,1.72 0.74,1.81 0.51,1.90 0.51,1.90 L 0.51,1.90 Z"></path></g><g transform="translate(758.3333333333335 494.4444444444444) rotate(0 -18.055555555555657 17.5)" stroke="none"><path fill="#1e1e1e" d="M 0.94,1.57 Q 0.94,1.57 0.21,2.16 -0.51,2.76 -2.02,3.49 -3.54,4.21 -5.46,4.21 -7.37,4.20 -8.86,4.15 -10.34,4.10 -12.75,4.11 -15.16,4.11 -16.83,3.95 -18.51,3.79 -19.90,3.74 -21.29,3.69 -22.52,3.67 -23.75,3.66 -25.36,3.46 -26.97,3.27 -28.36,3.22 -29.75,3.17 -31.17,3.73 -32.59,4.29 -32.32,5.61 -32.04,6.93 -31.56,8.17 -31.07,9.41 -30.53,10.94 -29.98,12.47 -29.28,14.37 -28.59,16.27 -27.96,18.06 -27.33,19.85 -26.88,21.68 -26.42,23.51 -25.94,25.13 -25.45,26.76 -24.98,27.80 -24.50,28.83 -23.90,31.60 -23.29,34.37 -23.22,34.57 -23.15,34.77 -23.14,34.98 -23.14,35.19 -23.21,35.39 -23.27,35.60 -23.40,35.77 -23.53,35.94 -23.70,36.06 -23.87,36.18 -24.08,36.24 -24.28,36.30 -24.49,36.29 -24.71,36.28 -24.91,36.20 -25.10,36.13 -25.27,35.99 -25.43,35.86 -25.54,35.68 -25.65,35.49 -25.70,35.29 -25.75,35.08 -25.73,34.87 -25.71,34.66 -25.62,34.46 -25.53,34.27 -25.39,34.11 -25.25,33.96 -25.06,33.86 -24.87,33.76 -24.66,33.72 -24.45,33.68 -24.24,33.71 -24.03,33.75 -23.85,33.84 -23.66,33.94 -23.51,34.09 -23.36,34.25 -23.27,34.44 -23.18,34.63 -23.15,34.84 -23.13,35.05 -23.17,35.26 -23.21,35.47 -23.32,35.65 -23.43,35.83 -23.59,35.97 -23.75,36.11 -23.95,36.19 -24.14,36.27 -24.35,36.29 -24.57,36.30 -24.77,36.25 -24.98,36.19 -25.15,36.08 -25.33,35.96 -25.46,35.79 -25.59,35.62 -25.59,35.62 -25.59,35.62 -26.85,34.37 -28.10,33.13 -28.69,32.04 -29.28,30.96 -29.87,29.60 -30.46,28.25 -30.97,26.50 -31.49,24.76 -31.87,23.16 -32.26,21.57 -32.87,19.82 -33.48,18.07 -34.19,16.14 -34.90,14.21 -35.42,12.76 -35.93,11.31 -36.43,10.03 -36.92,8.76 -37.58,6.87 -38.24,4.97 -37.80,3.00 -37.36,1.02 -35.91,0.23 -34.46,-0.56 -33.29,-1.05 -32.11,-1.54 -30.90,-1.78 -29.70,-2.02 -28.43,-1.96 -27.16,-1.90 -25.40,-1.62 -23.63,-1.35 -22.34,-1.30 -21.06,-1.26 -19.53,-1.18 -18.00,-1.09 -16.57,-0.93 -15.14,-0.76 -13.73,-0.75 -12.33,-0.74 -10.27,-0.68 -8.22,-0.62 -6.86,-0.41 -5.50,-0.19 -4.09,-0.52 -2.68,-0.85 -1.81,-1.21 -0.94,-1.57 -0.74,-1.66 -0.53,-1.75 -0.32,-1.79 -0.10,-1.82 0.11,-1.81 0.33,-1.80 0.54,-1.73 0.75,-1.66 0.94,-1.55 1.13,-1.43 1.29,-1.28 1.44,-1.12 1.55,-0.93 1.67,-0.74 1.73,-0.53 1.80,-0.32 1.81,-0.10 1.82,0.11 1.78,0.33 1.74,0.55 1.65,0.75 1.56,0.95 1.42,1.12 1.29,1.30 1.11,1.43 0.94,1.57 0.94,1.57 L 0.94,1.57 Z"></path></g><g transform="translate(522.2222222222222 697.7777777777778) rotate(0 1.3888888888888573 15.555555555555543)" stroke="none"><path fill="#1e1e1e" d="M -1.80,-0.51 Q -1.80,-0.51 -1.56,-1.65 -1.33,-2.79 -1.26,-3.61 -1.19,-4.42 -1.09,-4.67 -0.99,-4.91 -0.83,-5.12 -0.67,-5.33 -0.47,-5.50 -0.26,-5.67 -0.02,-5.78 0.20,-5.90 0.46,-5.95 0.72,-6.00 0.99,-5.99 1.25,-5.98 1.50,-5.91 1.76,-5.84 1.99,-5.71 2.22,-5.58 2.41,-5.39 2.60,-5.21 2.74,-4.99 2.88,-4.77 2.97,-4.52 3.05,-4.27 3.07,-4.00 3.09,-3.74 3.05,-3.48 3.01,-3.22 2.15,-1.84 1.29,-0.47 0.57,0.64 -0.14,1.77 -0.83,3.65 -1.52,5.54 -1.98,7.41 -2.43,9.28 -2.96,11.42 -3.49,13.55 -3.85,15.80 -4.21,18.04 -4.36,19.75 -4.51,21.46 -4.57,23.27 -4.63,25.08 -4.66,26.50 -4.68,27.92 -4.48,29.81 -4.27,31.70 -3.46,32.53 -2.66,33.35 -1.50,33.21 -0.35,33.07 0.92,32.75 2.19,32.43 3.26,32.14 4.32,31.84 6.93,31.69 9.53,31.54 9.74,31.50 9.95,31.46 10.16,31.49 10.37,31.51 10.56,31.61 10.75,31.70 10.90,31.85 11.05,32.00 11.15,32.19 11.25,32.37 11.28,32.58 11.31,32.79 11.27,33.00 11.23,33.21 11.13,33.40 11.03,33.59 10.87,33.73 10.71,33.87 10.52,33.96 10.33,34.04 10.11,34.06 9.90,34.08 9.70,34.03 9.49,33.98 9.31,33.87 9.13,33.76 8.99,33.60 8.86,33.43 8.78,33.23 8.71,33.03 8.70,32.82 8.69,32.61 8.75,32.41 8.81,32.20 8.93,32.03 9.06,31.85 9.23,31.73 9.40,31.60 9.60,31.54 9.80,31.47 10.02,31.48 10.23,31.48 10.43,31.55 10.63,31.62 10.80,31.75 10.96,31.89 11.08,32.06 11.20,32.24 11.25,32.45 11.30,32.65 11.29,32.86 11.27,33.08 11.19,33.27 11.11,33.47 10.97,33.63 10.83,33.79 10.64,33.89 10.46,34.00 10.46,34.00 10.46,34.00 8.08,35.42 5.70,36.84 4.53,37.16 3.36,37.47 1.64,37.85 -0.07,38.22 -1.75,38.23 -3.44,38.25 -4.62,37.79 -5.80,37.33 -7.07,35.90 -8.34,34.47 -8.84,32.43 -9.35,30.38 -9.51,29.10 -9.66,27.82 -9.63,26.36 -9.60,24.90 -9.52,22.95 -9.44,21.00 -9.26,19.12 -9.08,17.24 -8.67,14.80 -8.26,12.36 -7.71,10.22 -7.17,8.09 -6.61,5.94 -6.05,3.78 -5.11,1.45 -4.17,-0.86 -2.68,-2.64 -1.19,-4.42 -1.09,-4.67 -0.99,-4.91 -0.83,-5.12 -0.67,-5.33 -0.47,-5.50 -0.26,-5.67 -0.02,-5.78 0.20,-5.90 0.46,-5.95 0.72,-6.00 0.98,-5.99 1.25,-5.98 1.50,-5.91 1.76,-5.84 1.99,-5.71 2.21,-5.58 2.41,-5.39 2.60,-5.21 2.74,-4.99 2.88,-4.77 2.97,-4.52 3.05,-4.27 3.07,-4.00 3.09,-3.74 3.05,-3.48 3.01,-3.22 2.81,-2.44 2.61,-1.67 2.20,-0.57 1.80,0.51 1.71,0.72 1.62,0.93 1.49,1.11 1.35,1.29 1.18,1.43 1.00,1.58 0.80,1.68 0.60,1.77 0.37,1.82 0.15,1.87 -0.06,1.86 -0.29,1.85 -0.51,1.79 -0.72,1.73 -0.92,1.61 -1.12,1.50 -1.28,1.34 -1.45,1.19 -1.57,1.00 -1.69,0.81 -1.76,0.59 -1.83,0.38 -1.85,0.15 -1.87,-0.06 -1.84,-0.29 -1.80,-0.51 -1.80,-0.51 L -1.80,-0.51 Z"></path></g><g transform="translate(508.88888888888886 704.4444444444443) rotate(0 9.722222222222229 2.2222222222222854)" stroke="none"><path fill="#1e1e1e" d="M -0.77,-1.70 Q -0.77,-1.70 0.97,-2.50 2.72,-3.31 3.95,-4.21 5.18,-5.11 6.68,-6.30 8.18,-7.50 9.43,-8.62 10.67,-9.74 11.79,-10.97 12.90,-12.20 13.68,-13.18 14.46,-14.15 15.27,-15.21 16.07,-16.26 16.61,-17.72 17.14,-19.17 17.01,-20.58 16.88,-21.98 16.87,-22.35 16.85,-22.71 16.87,-22.96 16.89,-23.20 16.97,-23.44 17.05,-23.67 17.18,-23.88 17.31,-24.09 17.49,-24.26 17.67,-24.43 17.88,-24.55 18.10,-24.67 18.33,-24.74 18.57,-24.81 18.82,-24.82 19.06,-24.83 19.30,-24.78 19.55,-24.73 19.77,-24.62 19.99,-24.52 20.18,-24.36 20.37,-24.20 20.52,-24.01 20.67,-23.81 20.76,-23.58 20.86,-23.36 20.90,-23.11 20.94,-22.87 20.28,-21.58 19.62,-20.29 18.94,-17.98 18.27,-15.67 17.76,-14.16 17.25,-12.65 16.56,-10.57 15.87,-8.49 15.26,-6.65 14.65,-4.80 13.90,-2.72 13.16,-0.63 12.55,1.32 11.93,3.27 11.53,5.00 11.13,6.73 10.62,8.51 10.12,10.29 9.94,11.53 9.77,12.76 9.51,13.91 9.24,15.06 9.00,16.56 8.75,18.06 8.61,19.80 8.47,21.55 8.93,22.64 9.39,23.73 10.79,25.15 12.18,26.57 12.36,26.68 12.54,26.80 12.67,26.96 12.81,27.13 12.88,27.33 12.95,27.53 12.96,27.74 12.96,27.95 12.90,28.15 12.84,28.36 12.71,28.53 12.59,28.70 12.42,28.83 12.24,28.95 12.04,29.01 11.84,29.07 11.62,29.07 11.41,29.06 11.21,28.99 11.01,28.92 10.85,28.78 10.68,28.65 10.57,28.47 10.45,28.29 10.40,28.08 10.35,27.88 10.37,27.67 10.39,27.45 10.47,27.26 10.56,27.06 10.70,26.91 10.84,26.75 11.03,26.64 11.21,26.54 11.42,26.50 11.63,26.46 11.84,26.49 12.05,26.52 12.24,26.61 12.43,26.71 12.58,26.86 12.73,27.01 12.82,27.20 12.92,27.39 12.95,27.60 12.97,27.81 12.93,28.02 12.89,28.23 12.79,28.41 12.68,28.60 12.53,28.74 12.37,28.88 12.17,28.96 11.98,29.05 11.76,29.06 11.55,29.08 11.35,29.03 11.14,28.98 11.14,28.98 11.14,28.98 8.63,28.02 6.12,27.07 5.42,25.97 4.71,24.87 4.30,23.10 3.88,21.34 4.06,19.32 4.24,17.29 4.77,14.68 5.30,12.06 5.55,10.55 5.80,9.04 6.30,7.37 6.80,5.70 7.25,3.82 7.71,1.93 8.37,-0.09 9.02,-2.12 9.76,-4.16 10.50,-6.19 11.12,-8.04 11.75,-9.88 12.46,-11.97 13.17,-14.05 13.70,-15.59 14.24,-17.12 14.70,-18.38 15.17,-19.64 16.01,-21.18 16.85,-22.71 16.87,-22.96 16.89,-23.20 16.97,-23.44 17.05,-23.67 17.18,-23.88 17.31,-24.09 17.49,-24.26 17.67,-24.43 17.88,-24.55 18.10,-24.67 18.33,-24.74 18.57,-24.81 18.82,-24.82 19.06,-24.83 19.30,-24.78 19.55,-24.73 19.77,-24.62 19.99,-24.52 20.18,-24.36 20.37,-24.20 20.52,-24.01 20.67,-23.81 20.76,-23.58 20.86,-23.36 20.90,-23.11 20.94,-22.87 20.95,-22.10 20.96,-21.33 21.07,-20.10 21.19,-18.86 20.71,-17.55 20.23,-16.24 19.73,-15.06 19.24,-13.88 18.39,-12.79 17.53,-11.69 16.66,-10.61 15.79,-9.53 14.53,-8.19 13.26,-6.84 11.91,-5.65 10.57,-4.46 8.98,-3.22 7.38,-1.99 5.84,-0.93 4.30,0.11 2.53,0.91 0.77,1.70 0.55,1.77 0.34,1.83 0.11,1.85 -0.10,1.86 -0.32,1.82 -0.55,1.78 -0.75,1.69 -0.96,1.60 -1.14,1.46 -1.31,1.32 -1.45,1.15 -1.59,0.97 -1.69,0.76 -1.78,0.56 -1.82,0.34 -1.86,0.11 -1.85,-0.10 -1.84,-0.33 -1.77,-0.54 -1.70,-0.76 -1.59,-0.95 -1.47,-1.14 -1.31,-1.30 -1.15,-1.46 -0.96,-1.58 -0.77,-1.70 -0.77,-1.70 L -0.77,-1.70 Z"></path></g><g transform="translate(660 510.5555555555556) rotate(0 -55.55555555555554 4.4444444444444)" stroke="none"><path fill="#f08c00" d="M 0.24,1.70 Q 0.24,1.70 -0.83,2.13 -1.90,2.55 -3.38,3.23 -4.86,3.90 -6.21,4.31 -7.55,4.72 -8.73,4.98 -9.91,5.25 -11.05,5.52 -12.19,5.79 -13.93,6.21 -15.68,6.64 -17.11,7.14 -18.53,7.65 -19.59,7.82 -20.64,7.99 -21.86,8.39 -23.08,8.78 -24.10,9.08 -25.12,9.37 -26.19,9.53 -27.25,9.68 -28.97,9.99 -30.70,10.30 -32.42,10.36 -34.13,10.43 -35.38,10.57 -36.63,10.71 -38.12,10.80 -39.61,10.90 -41.71,10.95 -43.80,10.99 -45.13,10.82 -46.46,10.66 -48.70,10.58 -50.95,10.49 -52.11,10.48 -53.28,10.47 -54.73,10.29 -56.19,10.12 -57.29,10.05 -58.39,9.99 -60.37,9.96 -62.35,9.92 -63.43,9.91 -64.51,9.91 -65.61,9.91 -66.71,9.91 -67.81,9.91 -68.92,9.91 -70.13,9.91 -71.35,9.91 -72.56,9.91 -73.77,9.91 -76.10,10.06 -78.43,10.21 -79.83,10.29 -81.22,10.36 -82.46,10.39 -83.70,10.42 -84.87,10.44 -86.04,10.45 -87.18,10.46 -88.31,10.47 -89.44,10.47 -90.56,10.48 -92.01,10.48 -93.47,10.48 -94.80,10.49 -96.13,10.51 -97.51,10.52 -98.89,10.52 -100.20,10.67 -101.51,10.81 -103.16,11.06 -104.81,11.30 -106.32,11.46 -107.83,11.61 -109.46,10.90 -111.10,10.20 -111.31,10.16 -111.52,10.13 -111.71,10.03 -111.89,9.93 -112.04,9.78 -112.19,9.63 -112.28,9.44 -112.37,9.24 -112.39,9.03 -112.42,8.82 -112.37,8.61 -112.33,8.41 -112.22,8.22 -112.11,8.04 -111.95,7.90 -111.79,7.76 -111.59,7.68 -111.40,7.60 -111.19,7.59 -110.97,7.58 -110.77,7.63 -110.56,7.69 -110.39,7.81 -110.21,7.92 -110.08,8.09 -109.95,8.26 -109.88,8.46 -109.81,8.66 -109.81,8.87 -109.81,9.09 -109.88,9.29 -109.94,9.49 -110.07,9.66 -110.20,9.83 -110.37,9.95 -110.55,10.07 -110.75,10.13 -110.96,10.19 -111.17,10.18 -111.38,10.17 -111.58,10.09 -111.78,10.01 -111.94,9.88 -112.10,9.74 -112.21,9.56 -112.32,9.38 -112.37,9.17 -112.42,8.96 -112.40,8.75 -112.37,8.54 -112.29,8.35 -112.20,8.15 -112.05,8.00 -111.91,7.84 -111.72,7.74 -111.53,7.64 -111.32,7.61 -111.11,7.57 -111.12,7.57 -111.12,7.57 -109.63,6.81 -108.14,6.06 -107.07,5.98 -106.01,5.91 -104.23,5.64 -102.46,5.38 -100.67,5.20 -98.89,5.02 -97.51,5.03 -96.13,5.04 -94.80,5.05 -93.47,5.06 -92.02,5.06 -90.57,5.06 -89.45,5.06 -88.34,5.06 -87.22,5.06 -86.10,5.06 -84.97,5.05 -83.83,5.04 -82.66,5.01 -81.50,4.98 -80.23,4.92 -78.96,4.86 -76.36,4.69 -73.76,4.53 -72.56,4.52 -71.35,4.52 -70.13,4.52 -68.91,4.53 -67.80,4.53 -66.69,4.53 -65.59,4.53 -64.48,4.54 -63.39,4.55 -62.29,4.55 -60.18,4.60 -58.08,4.65 -56.80,4.73 -55.51,4.80 -54.37,4.96 -53.22,5.11 -52.02,5.12 -50.83,5.13 -49.51,5.16 -48.18,5.19 -46.02,5.41 -43.85,5.63 -41.87,5.59 -39.90,5.55 -37.77,5.32 -35.64,5.08 -34.06,5.07 -32.48,5.05 -31.20,4.96 -29.92,4.87 -28.25,4.58 -26.58,4.28 -24.95,3.75 -23.31,3.23 -21.77,2.94 -20.22,2.65 -18.57,2.09 -16.93,1.53 -15.01,1.08 -13.09,0.62 -11.83,0.35 -10.58,0.08 -9.20,-0.15 -7.81,-0.38 -6.73,-0.66 -5.65,-0.94 -4.10,-1.43 -2.56,-1.91 -1.40,-1.81 -0.24,-1.70 -0.03,-1.71 0.17,-1.71 0.37,-1.67 0.57,-1.62 0.76,-1.53 0.95,-1.44 1.10,-1.30 1.26,-1.17 1.38,-1.00 1.51,-0.83 1.58,-0.64 1.66,-0.44 1.69,-0.24 1.72,-0.03 1.70,0.17 1.68,0.37 1.61,0.57 1.54,0.76 1.43,0.94 1.31,1.11 1.16,1.25 1.00,1.39 0.82,1.49 0.64,1.60 0.44,1.65 0.24,1.70 0.24,1.70 L 0.24,1.70 Z"></path></g><g transform="translate(558.8888888888889 509.4444444444444) rotate(0 -5.833333333333314 9.166666666666686)" stroke="none"><path fill="#f08c00" d="M 0.98,1.73 Q 0.98,1.73 -0.02,2.54 -1.04,3.36 -1.95,3.94 -2.85,4.53 -4.26,5.34 -5.66,6.16 -6.73,6.95 -7.80,7.75 -8.36,8.81 -8.92,9.88 -7.71,10.93 -6.50,11.98 -5.41,12.80 -4.32,13.63 -2.84,15.48 -1.37,17.32 -1.23,17.49 -1.09,17.65 -1.01,17.84 -0.94,18.04 -0.92,18.25 -0.91,18.47 -0.97,18.67 -1.02,18.88 -1.14,19.05 -1.26,19.23 -1.43,19.36 -1.60,19.49 -1.80,19.56 -2.00,19.62 -2.21,19.62 -2.43,19.62 -2.63,19.56 -2.83,19.49 -3.00,19.36 -3.17,19.23 -3.29,19.06 -3.41,18.88 -3.46,18.68 -3.52,18.47 -3.51,18.26 -3.50,18.05 -3.42,17.85 -3.34,17.65 -3.21,17.49 -3.07,17.33 -2.89,17.22 -2.71,17.11 -2.50,17.06 -2.29,17.02 -2.08,17.04 -1.87,17.06 -1.68,17.15 -1.48,17.24 -1.33,17.38 -1.17,17.53 -1.07,17.72 -0.97,17.91 -0.94,18.11 -0.90,18.32 -0.94,18.53 -0.97,18.74 -1.07,18.93 -1.17,19.12 -1.32,19.27 -1.48,19.41 -1.67,19.50 -1.86,19.59 -2.07,19.62 -2.28,19.64 -2.49,19.59 -2.70,19.55 -2.88,19.44 -3.06,19.33 -3.06,19.33 -3.06,19.33 -4.66,19.23 -6.25,19.13 -7.71,18.14 -9.17,17.14 -10.39,16.12 -11.61,15.11 -12.32,14.26 -13.04,13.41 -13.69,11.63 -14.34,9.84 -14.20,8.67 -14.05,7.49 -13.20,6.16 -12.35,4.83 -11.43,4.12 -10.51,3.41 -9.27,2.57 -8.03,1.73 -6.73,1.06 -5.43,0.38 -4.42,-0.21 -3.42,-0.80 -2.20,-1.26 -0.98,-1.73 -0.76,-1.82 -0.54,-1.91 -0.30,-1.95 -0.07,-1.99 0.16,-1.97 0.40,-1.95 0.63,-1.87 0.86,-1.79 1.06,-1.66 1.26,-1.53 1.43,-1.36 1.59,-1.19 1.71,-0.98 1.83,-0.77 1.90,-0.54 1.96,-0.31 1.97,-0.07 1.98,0.16 1.93,0.40 1.88,0.63 1.78,0.85 1.67,1.07 1.52,1.25 1.37,1.44 1.18,1.58 0.98,1.73 0.98,1.73 L 0.98,1.73 Z"></path></g><g transform="translate(602.7777777777778 489.99999999999994) rotate(0 -0.8333333333333144 9.444444444444457)" stroke="none"><path fill="#f08c00" d="M 1.26,1.58 Q 1.26,1.58 0.61,2.39 -0.02,3.20 -0.80,4.61 -1.57,6.02 -2.00,7.12 -2.44,8.22 -2.75,9.24 -3.06,10.26 -3.44,11.78 -3.83,13.29 -3.86,14.69 -3.90,16.09 -2.14,15.60 -0.39,15.10 2.03,15.28 4.45,15.47 4.66,15.41 4.86,15.36 5.07,15.37 5.28,15.38 5.48,15.46 5.68,15.54 5.84,15.68 6.00,15.82 6.11,16.00 6.22,16.18 6.26,16.39 6.31,16.60 6.28,16.81 6.26,17.02 6.17,17.21 6.08,17.41 5.93,17.56 5.78,17.71 5.60,17.81 5.41,17.91 5.20,17.94 4.99,17.97 4.78,17.94 4.57,17.90 4.38,17.80 4.19,17.70 4.05,17.55 3.90,17.39 3.82,17.20 3.73,17.01 3.71,16.79 3.68,16.58 3.73,16.38 3.78,16.17 3.89,15.99 4.00,15.81 4.16,15.67 4.32,15.53 4.52,15.45 4.72,15.38 4.93,15.37 5.14,15.36 5.35,15.42 5.55,15.47 5.73,15.59 5.90,15.71 6.03,15.88 6.16,16.05 6.23,16.26 6.29,16.46 6.29,16.67 6.29,16.88 6.22,17.08 6.15,17.28 6.02,17.45 5.89,17.62 5.72,17.74 5.54,17.86 5.54,17.86 5.54,17.86 3.76,19.00 1.99,20.15 0.47,20.50 -1.04,20.86 -2.13,21.07 -3.21,21.28 -4.36,21.40 -5.51,21.52 -7.17,20.42 -8.84,19.32 -9.10,17.63 -9.36,15.93 -9.23,14.13 -9.11,12.33 -8.60,10.49 -8.10,8.65 -7.69,7.43 -7.28,6.21 -6.78,5.06 -6.28,3.90 -5.78,2.89 -5.27,1.87 -4.22,0.61 -3.16,-0.65 -2.21,-1.12 -1.26,-1.58 -1.06,-1.71 -0.85,-1.84 -0.61,-1.91 -0.38,-1.99 -0.14,-2.01 0.10,-2.02 0.34,-1.98 0.58,-1.94 0.80,-1.84 1.03,-1.74 1.22,-1.59 1.42,-1.45 1.57,-1.25 1.72,-1.06 1.83,-0.84 1.93,-0.62 1.97,-0.38 2.02,-0.14 2.01,0.10 2.00,0.34 1.93,0.58 1.86,0.81 1.73,1.02 1.61,1.23 1.43,1.41 1.26,1.58 1.26,1.58 L 1.26,1.58 Z"></path></g><g transform="translate(741.6666666666665 544.4444444444443) rotate(0 -318.611111111111 69.44444444444446)" stroke="none"><path fill="#f08c00" d="M 1.93,0 Q 1.93,0 1.77,0.95 1.60,1.91 1.60,3.37 1.61,4.83 1.37,5.87 1.13,6.92 1.11,8.14 1.09,9.36 1.15,10.58 1.21,11.80 0.96,12.84 0.70,13.89 0.45,15.35 0.20,16.81 -0.07,17.92 -0.35,19.04 -0.63,20.10 -0.91,21.15 -1.39,22.35 -1.87,23.55 -2.41,24.87 -2.94,26.19 -3.31,27.69 -3.68,29.19 -4.19,30.61 -4.70,32.03 -5.03,33.10 -5.37,34.16 -5.89,35.46 -6.40,36.75 -7.11,38.47 -7.83,40.19 -8.89,41.90 -9.96,43.61 -10.83,45.04 -11.70,46.46 -12.77,48.10 -13.85,49.74 -15.18,51.49 -16.50,53.24 -17.60,54.78 -18.70,56.32 -19.47,57.36 -20.24,58.40 -21.09,59.37 -21.94,60.34 -22.95,61.39 -23.96,62.45 -25.03,63.53 -26.09,64.61 -27.34,65.87 -28.60,67.13 -29.76,68.31 -30.93,69.48 -32.47,70.69 -34.00,71.90 -35.56,73.18 -37.12,74.45 -38.60,75.63 -40.07,76.81 -41.65,78.11 -43.23,79.40 -44.70,80.60 -46.18,81.80 -47.65,82.82 -49.13,83.85 -50.95,85.35 -52.78,86.85 -54.42,88.02 -56.07,89.19 -57.71,90.32 -59.36,91.45 -61.02,92.58 -62.67,93.70 -63.99,94.65 -65.31,95.60 -66.70,96.51 -68.10,97.43 -69.15,98.13 -70.20,98.83 -71.13,99.45 -72.05,100.06 -73.05,100.79 -74.05,101.52 -75.61,102.58 -77.16,103.64 -78.25,104.31 -79.33,104.98 -80.79,105.94 -82.26,106.90 -83.88,107.85 -85.51,108.80 -87.10,110.04 -88.68,111.29 -89.66,111.79 -90.63,112.29 -91.75,113.00 -92.86,113.71 -94.34,114.73 -95.81,115.76 -97.42,116.80 -99.02,117.85 -100.34,118.65 -101.66,119.45 -102.66,120.09 -103.66,120.73 -105.08,121.41 -106.51,122.09 -107.62,122.67 -108.73,123.25 -110.08,124.00 -111.42,124.74 -112.85,125.56 -114.29,126.37 -115.24,126.86 -116.19,127.35 -117.38,127.95 -118.56,128.56 -119.79,129.19 -121.01,129.83 -122.08,130.46 -123.15,131.09 -124.35,131.74 -125.55,132.40 -127.01,132.92 -128.47,133.44 -129.69,134.04 -130.91,134.64 -132.52,135.23 -134.13,135.82 -135.94,136.28 -137.76,136.75 -139.51,137.06 -141.25,137.38 -142.88,137.67 -144.50,137.96 -146.04,138.16 -147.58,138.36 -149.10,138.46 -150.62,138.56 -151.88,138.59 -153.13,138.63 -154.66,138.80 -156.20,138.97 -157.80,139.20 -159.41,139.43 -160.67,139.54 -161.92,139.65 -163.83,139.85 -165.75,140.06 -167.44,140.15 -169.12,140.25 -170.86,140.44 -172.60,140.64 -174.40,140.73 -176.20,140.82 -177.63,141.01 -179.06,141.20 -181.54,141.34 -184.01,141.47 -185.57,141.33 -187.12,141.18 -188.58,141.13 -190.04,141.08 -191.15,141.05 -192.27,141.03 -193.53,141.02 -194.79,141.02 -196.15,140.84 -197.50,140.67 -198.69,140.61 -199.88,140.55 -201.50,140.52 -203.13,140.49 -205.26,140.48 -207.39,140.47 -209.26,140.47 -211.13,140.46 -213.52,140.46 -215.91,140.46 -218.04,140.46 -220.17,140.46 -222.84,140.46 -225.50,140.46 -228.39,140.46 -231.28,140.46 -233.95,140.46 -236.61,140.46 -239.89,140.30 -243.16,140.14 -246.09,140.07 -249.01,140.00 -251.69,139.97 -254.37,139.94 -257.72,139.60 -261.06,139.27 -264.11,139.13 -267.16,139.00 -270.50,138.61 -273.84,138.22 -276.66,137.90 -279.47,137.58 -281.95,137.28 -284.43,136.99 -287.07,136.70 -289.70,136.42 -291.97,136.13 -294.23,135.85 -296.61,135.57 -298.99,135.29 -301.15,135.01 -303.30,134.73 -305.19,134.45 -307.08,134.17 -309.18,134.06 -311.28,133.96 -313.41,133.74 -315.55,133.53 -317.87,133.28 -320.19,133.03 -322.53,132.93 -324.87,132.83 -327.23,132.62 -329.60,132.41 -332.19,132.16 -334.77,131.91 -337.23,131.81 -339.69,131.71 -342.88,131.50 -346.06,131.30 -349.03,131.05 -351.99,130.80 -355.40,130.70 -358.81,130.59 -362.56,130.39 -366.31,130.18 -369.61,130.09 -372.91,130.01 -376.07,129.97 -379.22,129.93 -382.86,129.76 -386.49,129.58 -389.80,129.34 -393.11,129.11 -396.59,128.85 -400.06,128.59 -403.40,128.48 -406.73,128.37 -409.82,128.16 -412.91,127.95 -416.28,127.70 -419.66,127.46 -422.63,127.36 -425.61,127.25 -428.85,127.05 -432.09,126.84 -435.54,126.59 -438.99,126.34 -441.84,126.24 -444.69,126.14 -447.97,126.10 -451.25,126.05 -454.09,126.03 -456.92,126.01 -459.64,125.84 -462.36,125.67 -465.03,125.60 -467.71,125.53 -470.28,125.50 -472.86,125.47 -475.55,125.45 -478.24,125.44 -480.98,125.43 -483.72,125.42 -486.57,125.58 -489.42,125.74 -491.81,125.80 -494.21,125.87 -496.92,126.05 -499.62,126.24 -502.04,126.47 -504.45,126.71 -507.52,127.13 -510.59,127.54 -513.37,127.88 -516.15,128.22 -519.43,128.53 -522.72,128.84 -525.70,129.13 -528.67,129.42 -532.19,129.70 -535.72,129.99 -539.28,130.27 -542.85,130.55 -545.86,130.67 -548.86,130.79 -552.29,130.68 -555.71,130.57 -559.24,130.36 -562.77,130.15 -565.18,130.07 -567.59,129.98 -570.66,129.62 -573.72,129.25 -576.71,128.95 -579.70,128.64 -582.21,128.17 -584.72,127.70 -587.34,127.19 -589.97,126.68 -592.02,126.30 -594.08,125.93 -596.37,125.26 -598.67,124.59 -600.60,124.18 -602.54,123.78 -604.31,123.25 -606.08,122.72 -607.65,122.37 -609.22,122.02 -610.59,121.70 -611.95,121.38 -613.55,120.91 -615.16,120.44 -616.46,119.87 -617.76,119.29 -618.82,118.70 -619.88,118.12 -621.21,117.43 -622.54,116.74 -624.06,115.72 -625.57,114.70 -626.56,113.93 -627.54,113.15 -628.48,112.31 -629.41,111.47 -631.40,109.44 -633.40,107.41 -634.26,106.46 -635.12,105.51 -635.95,104.28 -636.78,103.06 -637.48,101.67 -638.19,100.27 -638.68,98.96 -639.17,97.64 -639.42,95.89 -639.67,94.15 -639.76,92.30 -639.85,90.46 -639.88,89.05 -639.91,87.64 -639.59,85.53 -639.27,83.41 -638.98,81.66 -638.69,79.91 -638.05,77.72 -637.41,75.53 -636.83,73.69 -636.25,71.85 -635.48,70.00 -634.72,68.16 -633.96,66.05 -633.20,63.93 -632.54,62.19 -631.88,60.45 -631.09,58.68 -630.30,56.92 -629.65,55.54 -628.99,54.16 -628.40,52.92 -627.80,51.69 -627.25,50.43 -626.71,49.17 -626.17,47.72 -625.64,46.28 -625.05,44.92 -624.47,43.57 -623.70,42.12 -622.94,40.68 -622.38,39.28 -621.81,37.88 -621.21,36.54 -620.60,35.20 -620.07,33.78 -619.54,32.35 -619.15,31.26 -618.75,30.16 -618.25,28.85 -617.75,27.55 -617.42,26.45 -617.08,25.36 -616.78,24.26 -616.47,23.16 -615.90,21.16 -615.32,19.15 -614.85,17.81 -614.38,16.46 -613.72,14.76 -613.06,13.06 -612.50,11.42 -611.94,9.79 -611.41,8.00 -610.87,6.21 -610.54,5.12 -610.20,4.04 -608.79,2.42 -607.38,0.80 -607.30,0.60 -607.22,0.40 -607.07,0.25 -606.93,0.09 -606.75,-0.01 -606.56,-0.11 -606.36,-0.16 -606.15,-0.20 -605.94,-0.17 -605.73,-0.14 -605.54,-0.05 -605.34,0.04 -605.19,0.19 -605.04,0.33 -604.95,0.52 -604.85,0.71 -604.82,0.93 -604.79,1.14 -604.83,1.34 -604.87,1.55 -604.97,1.74 -605.08,1.92 -605.24,2.07 -605.39,2.21 -605.59,2.29 -605.78,2.38 -605.99,2.40 -606.21,2.42 -606.41,2.37 -606.62,2.31 -606.80,2.20 -606.98,2.09 -607.11,1.92 -607.25,1.76 -607.32,1.56 -607.39,1.36 -607.40,1.15 -607.41,0.93 -607.35,0.73 -607.29,0.53 -607.16,0.35 -607.04,0.18 -606.87,0.06 -606.70,-0.06 -606.49,-0.12 -606.29,-0.18 -606.08,-0.18 -605.86,-0.17 -605.66,-0.10 -605.46,-0.03 -605.30,0.09 -605.13,0.22 -605.02,0.40 -604.90,0.58 -604.85,0.79 -604.80,0.99 -604.81,1.21 -604.83,1.42 -604.83,1.42 -604.83,1.42 -605.08,4.27 -605.33,7.13 -605.82,8.28 -606.31,9.43 -606.49,10.50 -606.66,11.56 -607.25,13.26 -607.84,14.97 -608.49,16.64 -609.14,18.32 -609.55,19.46 -609.96,20.61 -610.54,22.63 -611.12,24.65 -611.45,25.83 -611.78,27.01 -612.18,28.28 -612.58,29.54 -613.05,30.78 -613.53,32.03 -613.94,33.17 -614.35,34.31 -614.95,35.90 -615.56,37.49 -616.12,38.73 -616.69,39.97 -617.37,41.63 -618.06,43.28 -618.73,44.53 -619.39,45.77 -619.93,46.99 -620.46,48.20 -621.05,49.79 -621.64,51.37 -622.23,52.74 -622.83,54.11 -623.42,55.31 -624.00,56.51 -624.63,57.85 -625.26,59.18 -625.99,60.79 -626.71,62.41 -627.36,64.11 -628.01,65.81 -628.82,68.05 -629.63,70.28 -630.32,71.90 -631.00,73.51 -631.57,75.31 -632.13,77.10 -632.70,78.96 -633.26,80.81 -633.55,82.56 -633.84,84.31 -634.13,85.92 -634.42,87.53 -634.39,88.88 -634.36,90.22 -634.30,91.85 -634.24,93.48 -634.13,94.65 -634.02,95.81 -633.66,96.84 -633.30,97.86 -632.77,98.97 -632.24,100.08 -631.67,100.99 -631.09,101.90 -630.14,102.96 -629.20,104.01 -628.42,105.04 -627.65,106.07 -626.72,106.78 -625.80,107.50 -624.18,108.89 -622.56,110.29 -621.32,111.14 -620.08,112.00 -618.68,112.73 -617.27,113.46 -615.46,114.40 -613.64,115.34 -612.18,115.78 -610.73,116.21 -609.40,116.53 -608.06,116.85 -606.31,117.25 -604.55,117.65 -602.99,118.12 -601.44,118.60 -599.30,119.06 -597.17,119.52 -595.15,120.12 -593.13,120.73 -591.04,121.11 -588.95,121.49 -586.35,122.00 -583.74,122.51 -581.45,122.95 -579.16,123.38 -576.12,123.70 -573.09,124.01 -570.24,124.36 -567.40,124.71 -564.93,124.80 -562.46,124.89 -559.00,125.10 -555.54,125.30 -552.30,125.41 -549.07,125.51 -546.17,125.40 -543.27,125.28 -539.70,125.00 -536.14,124.72 -532.66,124.44 -529.18,124.16 -526.20,123.87 -523.21,123.58 -520.00,123.29 -516.79,122.99 -514.04,122.65 -511.29,122.31 -508.13,121.89 -504.96,121.46 -502.47,121.22 -499.98,120.97 -497.17,120.78 -494.36,120.59 -492.03,120.52 -489.70,120.46 -486.71,120.30 -483.71,120.14 -480.96,120.14 -478.21,120.15 -475.50,120.16 -472.80,120.17 -470.18,120.20 -467.57,120.23 -464.80,120.30 -462.03,120.37 -459.46,120.54 -456.88,120.70 -454.03,120.72 -451.18,120.74 -447.84,120.78 -444.50,120.83 -441.56,120.93 -438.61,121.04 -435.18,121.29 -431.76,121.53 -428.59,121.74 -425.43,121.94 -422.35,122.04 -419.27,122.15 -415.91,122.40 -412.55,122.65 -409.55,122.85 -406.56,123.06 -403.11,123.17 -399.67,123.28 -396.20,123.54 -392.73,123.80 -389.48,124.03 -386.23,124.26 -382.70,124.44 -379.16,124.61 -375.97,124.65 -372.77,124.68 -369.40,124.77 -366.02,124.86 -362.34,125.06 -358.65,125.26 -355.10,125.37 -351.54,125.47 -348.63,125.72 -345.72,125.96 -342.60,126.17 -339.47,126.37 -336.87,126.48 -334.26,126.59 -331.69,126.83 -329.13,127.08 -326.88,127.28 -324.63,127.48 -322.13,127.59 -319.62,127.70 -317.31,127.95 -315.00,128.19 -313.00,128.40 -311.00,128.60 -308.64,128.74 -306.29,128.87 -304.45,129.14 -302.60,129.42 -300.49,129.69 -298.37,129.96 -295.97,130.25 -293.57,130.53 -291.35,130.80 -289.12,131.08 -286.46,131.37 -283.80,131.65 -281.33,131.95 -278.86,132.25 -276.04,132.57 -273.22,132.89 -270.07,133.26 -266.92,133.63 -263.72,133.78 -260.51,133.93 -257.41,134.25 -254.31,134.58 -251.60,134.60 -248.89,134.63 -245.89,134.70 -242.90,134.77 -239.75,134.93 -236.61,135.09 -233.94,135.09 -231.28,135.09 -228.39,135.09 -225.50,135.09 -222.84,135.09 -220.17,135.09 -218.04,135.09 -215.90,135.09 -213.51,135.10 -211.11,135.10 -209.23,135.10 -207.36,135.11 -205.20,135.12 -203.03,135.14 -201.31,135.17 -199.59,135.20 -197.17,135.44 -194.74,135.67 -193.44,135.69 -192.14,135.70 -190.99,135.73 -189.83,135.76 -188.20,135.83 -186.57,135.91 -185.36,136.05 -184.14,136.19 -181.94,136.09 -179.73,135.99 -178.09,135.79 -176.46,135.59 -174.81,135.51 -173.16,135.44 -171.28,135.24 -169.40,135.04 -167.84,134.97 -166.29,134.89 -164.32,134.69 -162.35,134.49 -161.24,134.41 -160.13,134.32 -158.44,134.08 -156.74,133.84 -155.00,133.66 -153.26,133.49 -152.08,133.46 -150.90,133.43 -149.71,133.38 -148.51,133.33 -146.74,133.11 -144.96,132.89 -143.38,132.62 -141.79,132.35 -140.10,132.07 -138.40,131.78 -137.08,131.46 -135.76,131.14 -134.33,130.64 -132.90,130.14 -131.74,129.68 -130.58,129.22 -129.07,128.65 -127.55,128.09 -126.11,127.34 -124.67,126.60 -123.40,125.99 -122.12,125.37 -121.12,124.83 -120.13,124.29 -118.49,123.55 -116.86,122.81 -115.75,122.25 -114.64,121.70 -113.70,121.08 -112.76,120.46 -111.60,119.85 -110.43,119.25 -109.40,118.71 -108.37,118.17 -107.27,117.70 -106.17,117.23 -105.05,116.53 -103.92,115.84 -102.55,115.05 -101.17,114.26 -99.70,113.32 -98.23,112.37 -96.78,111.42 -95.34,110.47 -93.89,109.57 -92.44,108.68 -90.92,107.77 -89.41,106.87 -88.40,106.10 -87.39,105.32 -86.01,104.56 -84.63,103.79 -83.08,102.82 -81.53,101.84 -80.30,101.10 -79.08,100.36 -77.65,99.43 -76.22,98.50 -75.15,97.75 -74.08,97.00 -73.14,96.38 -72.21,95.77 -71.14,95.08 -70.07,94.39 -68.72,93.54 -67.38,92.69 -66.01,91.73 -64.65,90.77 -63.00,89.66 -61.34,88.56 -59.71,87.45 -58.09,86.34 -56.53,85.25 -54.98,84.16 -53.04,82.58 -51.10,81.00 -49.73,80.06 -48.35,79.11 -46.88,77.93 -45.42,76.74 -43.83,75.43 -42.24,74.12 -40.78,72.94 -39.32,71.75 -37.73,70.46 -36.13,69.17 -34.76,68.11 -33.38,67.04 -32.21,65.87 -31.04,64.70 -29.80,63.45 -28.55,62.20 -27.51,61.13 -26.47,60.06 -25.51,59.05 -24.56,58.05 -23.80,57.18 -23.04,56.32 -22.28,55.29 -21.51,54.27 -20.85,53.36 -20.19,52.45 -19.03,50.96 -17.86,49.47 -16.77,47.83 -15.68,46.19 -14.70,44.66 -13.72,43.13 -12.80,41.62 -11.87,40.10 -11.05,38.69 -10.22,37.28 -9.77,35.78 -9.33,34.28 -8.90,33.25 -8.47,32.22 -7.81,30.48 -7.16,28.73 -6.70,26.85 -6.25,24.97 -5.71,23.64 -5.18,22.31 -4.66,20.74 -4.15,19.17 -3.72,17.97 -3.30,16.78 -3.06,15.50 -2.82,14.23 -2.57,13.02 -2.32,11.80 -2.25,10.57 -2.19,9.34 -2.16,8.26 -2.12,7.19 -1.86,6.01 -1.61,4.83 -1.60,3.37 -1.60,1.91 -1.77,0.95 -1.93,0 -1.90,-0.23 -1.87,-0.46 -1.79,-0.68 -1.71,-0.89 -1.58,-1.09 -1.44,-1.28 -1.27,-1.43 -1.09,-1.59 -0.89,-1.70 -0.68,-1.80 -0.45,-1.86 -0.23,-1.92 0.00,-1.92 0.23,-1.91 0.45,-1.86 0.68,-1.80 0.89,-1.70 1.09,-1.59 1.27,-1.43 1.44,-1.28 1.58,-1.09 1.71,-0.89 1.79,-0.68 1.87,-0.46 1.90,-0.23 1.93,0.00 1.93,0.00 L 1.93,0 Z"></path></g><g transform="translate(139.99999999999994 537.7777777777778) rotate(0 0.2777777777778283 9.722222222222229)" stroke="none"><path fill="#f08c00" d="M 1.60,1.20 Q 1.60,1.20 0.30,3.22 -0.99,5.24 -2.23,6.88 -3.47,8.53 -4.79,10.21 -6.12,11.88 -7.44,13.68 -8.76,15.48 -9.92,16.68 -11.08,17.89 -11.55,18.50 -12.01,19.12 -12.24,19.30 -12.47,19.49 -12.74,19.61 -13.01,19.74 -13.30,19.80 -13.59,19.86 -13.88,19.84 -14.18,19.83 -14.46,19.74 -14.75,19.66 -15.00,19.51 -15.26,19.36 -15.47,19.16 -15.68,18.95 -15.84,18.70 -16.00,18.45 -16.09,18.17 -16.18,17.89 -16.21,17.59 -16.23,17.30 -16.18,17.00 -16.13,16.71 -16.01,16.44 -15.89,16.17 -15.72,15.93 -15.54,15.70 -14.45,14.62 -13.36,13.55 -12.65,12.74 -11.93,11.93 -10.84,10.88 -9.76,9.83 -8.00,9.32 -6.25,8.81 -4.75,8.86 -3.25,8.91 -1.98,9.12 -0.70,9.32 0.60,9.55 1.92,9.78 3.03,10.05 4.15,10.33 5.49,10.78 6.84,11.24 8.19,11.79 9.54,12.34 11.02,13.48 12.50,14.63 14.16,16.52 15.81,18.41 15.96,18.57 16.10,18.73 16.18,18.92 16.27,19.12 16.29,19.33 16.30,19.54 16.25,19.75 16.20,19.95 16.09,20.13 15.98,20.31 15.81,20.45 15.65,20.58 15.45,20.65 15.25,20.73 15.04,20.73 14.82,20.74 14.62,20.68 14.42,20.62 14.24,20.50 14.07,20.37 13.95,20.20 13.82,20.03 13.76,19.83 13.69,19.62 13.70,19.41 13.70,19.20 13.78,19.00 13.85,18.80 13.98,18.63 14.11,18.47 14.29,18.35 14.47,18.24 14.68,18.18 14.88,18.13 15.09,18.15 15.31,18.16 15.50,18.25 15.70,18.33 15.86,18.47 16.01,18.61 16.12,18.80 16.23,18.98 16.27,19.19 16.31,19.40 16.28,19.61 16.25,19.82 16.16,20.01 16.07,20.20 15.92,20.35 15.77,20.50 15.58,20.60 15.39,20.69 15.18,20.72 14.97,20.75 14.76,20.71 14.55,20.67 14.36,20.57 14.18,20.47 14.18,20.47 14.18,20.47 12.16,19.43 10.13,18.40 8.89,17.83 7.64,17.27 6.35,16.82 5.05,16.36 2.98,15.69 0.90,15.03 -0.37,14.75 -1.65,14.48 -2.72,14.25 -3.79,14.02 -5.31,13.78 -6.83,13.55 -7.92,14.12 -9.00,14.69 -10.12,15.89 -11.23,17.09 -11.62,18.10 -12.01,19.12 -12.24,19.30 -12.47,19.49 -12.74,19.61 -13.01,19.74 -13.30,19.80 -13.59,19.86 -13.88,19.84 -14.18,19.83 -14.46,19.74 -14.75,19.66 -15.00,19.51 -15.26,19.36 -15.47,19.16 -15.68,18.95 -15.84,18.70 -16.00,18.45 -16.09,18.17 -16.18,17.89 -16.21,17.59 -16.23,17.30 -16.18,17.00 -16.13,16.71 -16.01,16.44 -15.89,16.17 -15.72,15.93 -15.54,15.70 -15.10,15.06 -14.66,14.43 -13.71,13.45 -12.75,12.48 -11.34,10.64 -9.94,8.80 -8.60,7.19 -7.27,5.58 -6.01,4.00 -4.75,2.42 -3.17,0.61 -1.60,-1.20 -1.43,-1.37 -1.26,-1.55 -1.06,-1.67 -0.86,-1.80 -0.63,-1.88 -0.40,-1.96 -0.16,-1.98 0.07,-2.00 0.31,-1.96 0.55,-1.92 0.77,-1.83 1.00,-1.73 1.19,-1.59 1.38,-1.44 1.53,-1.25 1.69,-1.07 1.79,-0.85 1.89,-0.63 1.94,-0.39 1.99,-0.16 1.98,0.07 1.97,0.31 1.91,0.55 1.84,0.78 1.72,0.99 1.60,1.20 1.60,1.20 L 1.60,1.20 Z"></path></g><g transform="translate(616.1111111111111 636.1111111111111) rotate(0 11.388888888888744 -0.5555555555555998)" stroke="none"><path fill="#f08c00" d="M -1.35,0 Q -1.35,0 -1.80,-0.95 -2.26,-1.91 -2.07,-3.55 -1.88,-5.18 -1.61,-6.30 -1.34,-7.42 -1.06,-8.64 -0.78,-9.87 -0.47,-11.11 -0.15,-12.35 0.13,-13.55 0.42,-14.76 0.68,-15.85 0.95,-16.94 1.28,-18.02 1.60,-19.10 1.71,-19.36 1.82,-19.62 1.99,-19.84 2.15,-20.06 2.37,-20.24 2.59,-20.42 2.84,-20.54 3.09,-20.66 3.36,-20.72 3.64,-20.77 3.91,-20.76 4.19,-20.75 4.46,-20.68 4.73,-20.60 4.97,-20.46 5.22,-20.32 5.42,-20.13 5.62,-19.94 5.77,-19.70 5.92,-19.47 6.01,-19.20 6.10,-18.94 6.12,-18.66 6.15,-18.38 6.10,-18.11 6.06,-17.83 6.99,-16.96 7.92,-16.09 8.28,-14.71 8.63,-13.33 8.92,-11.96 9.21,-10.58 9.56,-9.49 9.91,-8.40 10.13,-6.97 10.36,-5.54 10.50,-4.11 10.64,-2.67 10.88,-1.39 11.12,-0.10 11.43,1.62 11.75,3.35 11.77,5.12 11.79,6.89 11.79,8.04 11.79,9.19 11.56,10.56 11.33,11.94 11.29,13.20 11.25,14.47 10.99,15.77 10.73,17.07 10.70,17.45 10.68,17.84 10.58,18.11 10.49,18.38 10.33,18.62 10.18,18.85 9.97,19.05 9.76,19.24 9.52,19.38 9.27,19.52 8.99,19.60 8.72,19.67 8.44,19.68 8.15,19.69 7.87,19.63 7.60,19.57 7.34,19.44 7.09,19.32 6.87,19.13 6.65,18.95 6.48,18.72 6.31,18.49 6.21,18.23 6.10,17.97 6.06,17.69 6.01,17.40 6.04,17.12 6.07,16.84 5.69,15.13 5.32,13.42 5.49,12.36 5.67,11.30 5.98,9.96 6.29,8.62 6.56,7.24 6.83,5.86 7.10,4.24 7.37,2.62 7.65,1.30 7.93,-0.00 8.20,-1.46 8.47,-2.92 8.74,-4.32 9.00,-5.72 9.26,-7.45 9.53,-9.18 10.32,-10.89 11.11,-12.60 11.90,-13.69 12.69,-14.78 13.59,-15.46 14.50,-16.14 15.69,-16.58 16.87,-17.02 18.38,-17.13 19.90,-17.25 21.75,-16.21 23.61,-15.17 23.81,-15.09 24.01,-15.01 24.17,-14.87 24.33,-14.73 24.44,-14.55 24.55,-14.37 24.59,-14.16 24.64,-13.95 24.62,-13.74 24.59,-13.53 24.50,-13.34 24.41,-13.15 24.27,-12.99 24.12,-12.84 23.93,-12.74 23.75,-12.64 23.54,-12.60 23.33,-12.57 23.12,-12.61 22.91,-12.64 22.72,-12.74 22.53,-12.84 22.39,-12.99 22.24,-13.15 22.15,-13.34 22.06,-13.53 22.04,-13.75 22.02,-13.96 22.06,-14.16 22.11,-14.37 22.22,-14.55 22.33,-14.74 22.49,-14.87 22.65,-15.01 22.85,-15.09 23.05,-15.17 23.26,-15.18 23.47,-15.19 23.68,-15.13 23.88,-15.08 24.06,-14.96 24.23,-14.84 24.36,-14.67 24.49,-14.50 24.56,-14.30 24.62,-14.09 24.62,-13.88 24.62,-13.67 24.56,-13.47 24.49,-13.27 24.36,-13.10 24.23,-12.93 24.05,-12.81 23.88,-12.69 23.67,-12.63 23.47,-12.58 23.26,-12.59 23.04,-12.60 23.04,-12.60 23.04,-12.60 20.43,-12.26 17.81,-11.92 16.76,-11.16 15.70,-10.41 15.18,-9.38 14.67,-8.35 14.42,-7.10 14.18,-5.86 14.02,-4.78 13.87,-3.71 13.58,-2.31 13.29,-0.91 12.99,0.66 12.68,2.24 12.41,3.68 12.14,5.11 11.84,6.74 11.54,8.38 11.25,9.57 10.95,10.76 10.61,12.06 10.27,13.36 10.26,14.47 10.25,15.59 10.46,16.71 10.68,17.84 10.58,18.11 10.49,18.38 10.33,18.62 10.18,18.85 9.97,19.05 9.76,19.24 9.52,19.38 9.27,19.52 8.99,19.60 8.72,19.67 8.44,19.68 8.15,19.69 7.87,19.63 7.60,19.57 7.34,19.44 7.09,19.32 6.87,19.13 6.65,18.95 6.48,18.72 6.31,18.49 6.21,18.23 6.10,17.97 6.06,17.69 6.01,17.40 6.04,17.12 6.07,16.84 6.09,16.55 6.12,16.25 6.34,14.94 6.55,13.62 6.60,12.56 6.64,11.49 6.86,9.77 7.08,8.06 7.07,6.54 7.06,5.03 6.99,3.56 6.91,2.08 6.62,0.77 6.33,-0.53 6.05,-2.50 5.77,-4.47 5.55,-5.89 5.33,-7.31 4.99,-8.34 4.65,-9.38 4.38,-10.71 4.10,-12.05 3.88,-13.09 3.66,-14.14 3.10,-15.15 2.53,-16.16 2.07,-17.63 1.60,-19.10 1.71,-19.36 1.82,-19.62 1.99,-19.84 2.15,-20.06 2.37,-20.24 2.59,-20.42 2.84,-20.54 3.09,-20.66 3.36,-20.72 3.64,-20.77 3.91,-20.76 4.19,-20.75 4.46,-20.68 4.73,-20.60 4.97,-20.46 5.22,-20.32 5.42,-20.13 5.62,-19.94 5.77,-19.70 5.92,-19.47 6.01,-19.20 6.10,-18.94 6.12,-18.66 6.15,-18.38 6.10,-18.11 6.06,-17.83 6.01,-17.55 5.97,-17.28 5.45,-16.07 4.93,-14.86 4.64,-13.25 4.35,-11.64 3.95,-10.03 3.54,-8.42 3.27,-7.30 3.01,-6.18 2.76,-5.12 2.52,-4.06 2.39,-2.99 2.26,-1.91 1.80,-0.95 1.35,0 1.33,0.16 1.31,0.32 1.25,0.47 1.19,0.62 1.10,0.76 1.01,0.89 0.89,1.00 0.76,1.11 0.62,1.19 0.48,1.26 0.32,1.30 0.16,1.34 -0.00,1.34 -0.16,1.34 -0.32,1.30 -0.48,1.26 -0.62,1.19 -0.76,1.11 -0.89,1.00 -1.01,0.89 -1.10,0.76 -1.19,0.62 -1.25,0.47 -1.31,0.32 -1.33,0.16 -1.35,-0.00 -1.35,-0.00 L -1.35,0 Z"></path></g><g transform="translate(625 71.11111111111109) rotate(0 1.1111111111110858 -1.6666666666666572)" stroke="none"><path fill="#f08c00" d="M -1.93,-1.28 Q -1.93,-1.28 -1.96,-1.31 -2.00,-1.33 -1.81,-1.55 -1.62,-1.77 -1.39,-1.94 -1.15,-2.11 -0.88,-2.22 -0.61,-2.33 -0.32,-2.37 -0.03,-2.40 0.25,-2.37 0.53,-2.34 0.81,-2.25 1.08,-2.15 1.32,-1.99 1.56,-1.82 1.76,-1.61 1.96,-1.40 2.10,-1.14 2.23,-0.89 2.31,-0.60 2.38,-0.32 2.39,-0.03 2.39,0.25 2.33,0.53 2.26,0.81 2.13,1.07 2.00,1.33 1.73,1.62 1.47,1.90 1.13,2.09 0.78,2.27 0.40,2.34 0.01,2.40 -0.36,2.34 -0.75,2.28 -1.09,2.10 -1.44,1.92 -1.71,1.64 -1.98,1.36 -2.15,1.01 -2.31,0.66 -2.36,0.27 -2.40,-0.11 -2.32,-0.49 -2.24,-0.87 -2.04,-1.21 -1.84,-1.54 -1.55,-1.80 -1.25,-2.05 -0.89,-2.20 -0.53,-2.34 -0.14,-2.37 0.24,-2.39 0.61,-2.29 0.99,-2.19 1.31,-1.97 1.64,-1.76 1.88,-1.45 2.12,-1.14 2.24,-0.77 2.37,-0.40 2.37,-0.01 2.38,0.37 2.25,0.74 2.13,1.11 1.90,1.42 1.67,1.73 1.34,1.95 1.02,2.17 0.65,2.28 0.27,2.39 -0.11,2.37 -0.50,2.35 -0.86,2.21 -1.22,2.07 -1.52,1.82 -1.82,1.57 -2.02,1.24 -2.23,0.90 -2.31,0.52 -2.40,0.14 -2.36,-0.23 -2.32,-0.62 -2.16,-0.98 -2.00,-1.33 -2.00,-1.33 -2.00,-1.33 -1.81,-1.55 -1.62,-1.77 -1.39,-1.94 -1.15,-2.11 -0.88,-2.22 -0.61,-2.33 -0.32,-2.37 -0.03,-2.40 0.24,-2.37 0.53,-2.34 0.81,-2.25 1.08,-2.15 1.32,-1.99 1.56,-1.82 1.76,-1.61 1.96,-1.40 2.10,-1.14 2.23,-0.89 2.31,-0.61 2.38,-0.32 2.39,-0.03 2.39,0.25 2.33,0.53 2.26,0.81 2.13,1.07 2.00,1.33 1.96,1.31 1.93,1.28 1.74,1.50 1.56,1.71 1.33,1.87 1.11,2.03 0.85,2.14 0.59,2.24 0.31,2.28 0.03,2.32 -0.24,2.29 -0.51,2.26 -0.78,2.16 -1.04,2.07 -1.27,1.91 -1.51,1.76 -1.70,1.55 -1.88,1.34 -2.02,1.10 -2.15,0.85 -2.22,0.58 -2.29,0.31 -2.30,0.03 -2.30,-0.24 -2.24,-0.51 -2.18,-0.78 -2.05,-1.03 -1.93,-1.28 -1.93,-1.28 L -1.93,-1.28 Z"></path></g><g transform="translate(99.44444444444446 432.7777777777779) rotate(0 31.877983093261747 17.5)"><text x="0" y="0" font-family="Virgil, Segoe UI Emoji" font-size="28px" fill="#1e1e1e" text-anchor="start" style="white-space: pre;" direction="ltr" dominant-baseline="text-before-edge">head</text></g><g transform="translate(474.99999999999994 431.6666666666667) rotate(0 23.995986938476562 17.5)"><text x="0" y="0" font-family="Virgil, Segoe UI Emoji" font-size="28px" fill="#1e1e1e" text-anchor="start" style="white-space: pre;" direction="ltr" dominant-baseline="text-before-edge">tail</text></g></svg>